<svg width="683" height="423" viewBox="0 0 683 423" fill="none" xmlns="http://www.w3.org/2000/svg">
<g clip-path="url(#clip0_440_620)">
<mask id="mask0_440_620" style="mask-type:luminance" maskUnits="userSpaceOnUse" x="0" y="0" width="683" height="423">
<path d="M683 0H0V423H683V0Z" fill="white"/>
</mask>
<g mask="url(#mask0_440_620)">
<path d="M343.252 675.818C529.729 675.818 680.899 524.688 680.899 338.259C680.899 151.83 529.729 0.699219 343.252 0.699219C156.774 0.699219 5.60449 151.83 5.60449 338.259C5.60449 524.688 156.774 675.818 343.252 675.818Z" fill="#0577FF"/>
<path d="M494.212 18.8047H317.683V188.285H494.212V18.8047Z" fill="white" stroke="#0F0F0F" stroke-width="3"/>
<path d="M337.169 32.6992V189.639" stroke="#0F0F0F" stroke-width="3"/>
<path d="M316.632 32.1094H495.263" stroke="#0F0F0F" stroke-width="3"/>
<path d="M323.941 27.9237C325.159 27.9237 326.145 26.9448 326.145 25.7372C326.145 24.5297 325.159 23.5508 323.941 23.5508C322.724 23.5508 321.737 24.5297 321.737 25.7372C321.737 26.9448 322.724 27.9237 323.941 27.9237Z" fill="#0577FF"/>
<path d="M332.064 27.9237C333.282 27.9237 334.268 26.9448 334.268 25.7372C334.268 24.5297 333.282 23.5508 332.064 23.5508C330.847 23.5508 329.86 24.5297 329.86 25.7372C329.86 26.9448 330.847 27.9237 332.064 27.9237Z" fill="#0F0F0F"/>
<path d="M340.188 27.9237C341.406 27.9237 342.392 26.9448 342.392 25.7372C342.392 24.5297 341.406 23.5508 340.188 23.5508C338.971 23.5508 337.984 24.5297 337.984 25.7372C337.984 26.9448 338.971 27.9237 340.188 27.9237Z" fill="#0F0F0F"/>
<path d="M498.25 17.7539H493.161V189.637H498.25V17.7539Z" fill="#0F0F0F"/>
<path d="M391.863 88.8985L405.355 78.2325M419.135 78.2325L431.402 88.9749M431.402 88.9749V85.6735V63.9766H391.771V92.2762H412.53H431.402V88.9749Z" stroke="#0577FF" stroke-width="3"/>
<path d="M391.863 67.3477C391.863 67.3477 407.182 80.696 408.43 81.7822C409.679 82.8684 410.978 83.1184 411.752 83.1184C412.527 83.1184 413.827 82.8691 415.075 81.7836C416.323 80.6974 431.642 67.3484 431.642 67.3484" stroke="#0577FF" stroke-width="3"/>
<path d="M432.346 87.5586V85.6719H430.459L432.346 87.5586Z" fill="#0577FF"/>
<path d="M389.485 102.078H433.968" stroke="#0F0F0F" stroke-width="3"/>
<path d="M368.47 111.883H455.684" stroke="#0F0F0F" stroke-width="3"/>
<path d="M378.277 121.688H445.527" stroke="#0F0F0F" stroke-width="3"/>
<path d="M402.095 131.492H421.709" stroke="#0F0F0F" stroke-width="3"/>
<path d="M138.886 387.914C143.662 385.101 148.62 382.607 153.725 380.45C153.208 378.663 152.948 376.811 152.952 374.95C152.956 374.727 153.044 374.514 153.198 374.354C156.718 371.022 166.85 362.9 174.865 356.363C174.879 356.351 174.895 356.339 174.91 356.328C174.986 356.275 175.07 356.234 175.16 356.208C175.268 356.176 175.382 356.165 175.493 356.177C175.605 356.189 175.714 356.223 175.812 356.276C175.911 356.33 175.998 356.403 176.069 356.491C176.139 356.578 176.193 356.679 176.224 356.787C176.256 356.895 176.267 357.008 176.255 357.12C176.243 357.232 176.21 357.341 176.156 357.44C176.102 357.538 176.029 357.626 175.942 357.697C168.899 363.404 158.18 372.037 154.655 375.337C154.802 378.661 155.653 381.915 157.151 384.886C161.503 381.139 189.525 357.24 189.525 357.24C189.61 357.167 189.708 357.112 189.815 357.078C189.921 357.043 190.033 357.03 190.145 357.039C190.256 357.047 190.365 357.078 190.464 357.129C190.564 357.18 190.652 357.25 190.725 357.335C190.798 357.42 190.852 357.519 190.887 357.625C190.922 357.732 190.935 357.844 190.926 357.956C190.917 358.067 190.887 358.176 190.836 358.275C190.785 358.375 190.715 358.464 190.63 358.536C190.63 358.536 162.123 382.735 157.998 386.218C163.682 396.639 175.365 406.116 182.555 406.855C253.271 352.738 261.276 346.136 267.792 336.443C274.307 326.751 274.978 310.884 279.309 255.635C279.326 255.452 279.401 255.279 279.525 255.142C279.649 255.006 279.813 254.914 279.993 254.879C286.404 253.582 287.744 250.919 288.577 252.386C288.683 252.582 288.711 252.811 288.656 253.027C288.6 253.242 288.466 253.429 288.278 253.55C286.064 254.824 283.677 255.771 281.19 256.36C285.594 274.697 292.107 292.461 300.598 309.297C302.165 311.429 303.58 313.666 304.836 315.994C305.839 317.965 297.954 407.732 297.83 409.895C305.25 415.781 328.897 419.85 342.297 414.107C352.416 324.058 352.75 314.706 350.088 302.806C347.759 292.574 340.961 280.793 304.683 224.155C304.384 223.669 304.646 223.896 305.71 218.798C300.706 220.507 295.487 221.507 290.205 221.768C288.938 236.2 288.923 238.677 282.783 239.309C282.671 239.316 282.559 239.301 282.453 239.265C282.347 239.229 282.249 239.173 282.166 239.098C282.082 239.024 282.013 238.934 281.964 238.834C281.915 238.733 281.886 238.624 281.879 238.512C281.868 238.402 281.879 238.292 281.911 238.186C281.944 238.081 281.997 237.983 282.069 237.899C282.14 237.815 282.228 237.746 282.327 237.697C282.425 237.648 282.533 237.619 282.643 237.613C287.038 237.226 287.104 236.755 288.488 221.977C273.307 222.606 258.148 220.252 243.869 215.047C241.357 244.074 238.657 287.479 239.923 315.942C239.991 316.428 240.199 316.266 232.947 322.597C232.776 322.748 232.552 322.825 232.324 322.81C232.096 322.796 231.884 322.692 231.733 322.52C231.582 322.35 231.505 322.125 231.52 321.897C231.534 321.669 231.638 321.457 231.809 321.305C234.372 319.089 236.434 317.234 237.936 315.883C238.036 315.793 238.134 315.705 238.229 315.619C236.96 286.893 239.572 243.335 242.227 214.387C237.779 212.645 233.582 210.316 229.75 207.462C228.677 219.063 227.765 231.333 227.494 241.6C226.867 265.547 226.967 276.46 226.944 281.466C226.925 285.675 226.821 285.711 226.127 285.808C226.005 285.827 225.881 285.819 225.762 285.785C225.644 285.75 225.534 285.69 225.442 285.609C225.348 285.527 225.274 285.427 225.224 285.315C225.187 285.233 225.164 285.147 225.155 285.059C225.152 285.025 225.149 284.99 225.15 284.956C225.635 238.694 225.372 228.139 231.485 174.783C218.232 178.527 215.49 180.594 211.932 184.13C208.375 187.665 207.892 193.376 204.054 238.294C204.14 241.021 201.308 242.211 198.399 242.389C200.37 244.916 203.738 248.238 204.061 250.535C204.353 253.72 203.753 256.923 202.328 259.786C202.312 259.823 202.294 259.859 202.274 259.894C202.178 260.052 202.034 260.176 201.861 260.246C201.65 260.332 201.415 260.33 201.205 260.241C200.996 260.152 200.83 259.984 200.746 259.773C200.664 259.571 200.662 259.347 200.739 259.145C200.743 259.136 200.746 259.126 200.751 259.117C202.066 256.544 202.63 253.651 202.379 250.771C202.029 248.28 196.176 243.459 195.517 240.648C195.105 238.471 195.093 236.236 195.481 234.055C186.77 231.957 177.768 231.348 168.856 232.252C168.117 238.955 164.813 244.765 163.842 256.383C163.641 260.961 164.14 265.541 165.324 269.968C165.829 270.846 166.659 271.49 167.635 271.76C168.61 272.031 169.653 271.906 170.537 271.413C169.891 268.661 169.497 265.856 169.359 263.032C169.328 262.809 169.386 262.583 169.522 262.403C169.657 262.223 169.858 262.104 170.081 262.073C170.304 262.042 170.53 262.1 170.71 262.236C170.89 262.372 171.008 262.573 171.04 262.796C171.181 265.444 171.551 268.075 172.145 270.659C172.731 272.952 175.586 274.267 178.411 272.088C177.807 269.428 177.427 266.722 177.274 263.999C177.243 263.776 177.302 263.55 177.437 263.37C177.572 263.19 177.774 263.071 177.997 263.04C178.219 263.008 178.446 263.067 178.626 263.202C178.805 263.338 178.924 263.54 178.956 263.763C178.921 266.523 179.308 269.273 180.102 271.917C180.387 272.499 180.814 272.999 181.342 273.374C181.871 273.749 182.485 273.985 183.128 274.062C183.771 274.139 184.422 274.054 185.024 273.814C185.626 273.575 186.158 273.188 186.572 272.69C185.933 270.03 185.648 267.296 185.726 264.56C185.733 264.332 185.831 264.116 185.998 263.959C186.164 263.803 186.386 263.718 186.614 263.726C186.843 263.733 187.058 263.831 187.215 263.998C187.372 264.165 187.455 264.387 187.448 264.616C187.385 266.978 187.584 269.34 188.043 271.659C188.163 272.517 188.619 273.292 189.311 273.814C190.003 274.335 190.873 274.561 191.73 274.441C192.588 274.32 193.362 273.863 193.883 273.172C194.403 272.48 194.628 271.608 194.508 270.751C194.232 264.753 194.491 258.743 195.28 252.791C195.327 252.57 195.46 252.377 195.65 252.255C195.84 252.132 196.071 252.09 196.292 252.138C196.512 252.185 196.706 252.319 196.828 252.509C196.951 252.699 196.993 252.93 196.945 253.151C196.59 255.772 196.339 258.404 196.191 261.043C196.172 261.381 196.155 261.72 196.139 262.059C196.008 264.933 195.999 267.813 196.115 270.69C196.197 271.753 195.937 272.816 195.373 273.721C194.808 274.627 193.97 275.327 192.978 275.721C191.988 276.114 190.897 276.18 189.866 275.909C188.835 275.637 187.917 275.043 187.248 274.212C186.678 274.765 185.997 275.189 185.25 275.455C184.503 275.722 183.707 275.825 182.917 275.758C182.127 275.691 181.36 275.455 180.668 275.066C179.976 274.677 179.376 274.144 178.907 273.504C178.343 273.989 177.686 274.354 176.976 274.576C176.266 274.797 175.518 274.871 174.778 274.793C174.039 274.714 173.323 274.485 172.675 274.12C172.027 273.754 171.46 273.259 171.01 272.666C169.716 273.352 168.203 273.501 166.8 273.081C165.397 272.66 164.215 271.705 163.508 270.421C162.203 265.719 161.651 260.841 161.872 255.967C162.323 250.646 163.353 245.389 164.942 240.292C163.719 240.06 162.615 239.406 161.824 238.445C161.032 237.483 160.602 236.273 160.609 235.027C163.668 178.702 168.058 163.964 178.855 150.733C197.074 128.376 222.12 123.405 258.292 113.638C262.389 112.534 271.922 104.133 278.688 95.9892C278.35 74.8203 278.737 72.8853 288.885 70.2716C288.918 65.5815 291.861 64.475 302.839 62.1408C310.552 60.4964 314.186 60.5468 316.033 62.201C317.881 63.8552 317.909 65.9296 317.745 69.4502C317.521 74.662 315.001 76.4352 310.226 77.4031C309.352 102.371 308.611 106.006 304.347 107.101C301.511 107.796 299.31 107.379 295.115 104.504C295.611 108.031 296.803 114.166 300.806 115.913C313.352 120.98 318.528 123.091 323.373 128.25C332.563 138.045 333.139 145.191 341.211 192.527C349.62 197.945 358.915 203.568 367.15 208.68C385.132 219.352 385.132 219.352 385.355 220.937C385.668 222.695 385.298 224.506 384.319 225.999C385.059 226.411 385.917 226.558 386.751 226.417C393.022 225.767 397.935 222.964 400.811 225.365L402.272 226.611L405.363 225.154C408.778 223.652 411.499 227.295 417.292 229.582C419.423 230.438 420.635 229.905 427.831 227.871C428.369 226.04 429.247 224.327 430.418 222.822C431.098 222.033 473.381 210.945 474.43 210.666C467.909 150.441 468.538 140.618 474.412 133.623C478.475 128.763 485.864 125.745 497.167 124.553C499.146 122.909 500.726 120.837 501.788 118.492C500.37 118.9 498.927 119.212 497.469 119.429C493.008 120.055 491.583 119.068 490.23 116.948C488.114 113.616 486.758 106.547 485.905 88.5202C482.053 87.3408 478.61 85.1039 475.965 82.0631C474.957 81.0777 474.349 79.7541 474.257 78.3472C474.164 76.9402 474.594 75.5493 475.465 74.4407C476.335 73.3321 477.584 72.5848 478.971 72.3418C480.359 72.0995 481.787 72.3782 482.982 73.1255C483.302 68.1314 489.693 67.3982 492.485 70.3718C493.069 69.6357 493.83 69.0594 494.696 68.6959C495.563 68.3324 496.506 68.1938 497.441 68.2925C498.375 68.392 499.269 68.7253 500.041 69.2625C500.812 69.7996 501.436 70.5224 501.854 71.3649C502.467 70.6372 503.268 70.0923 504.169 69.7898C505.071 69.4873 506.038 69.4382 506.966 69.6483C507.893 69.8584 508.746 70.32 509.429 70.9818C510.113 71.6436 510.602 72.4805 510.843 73.4014C511.519 72.8215 512.347 72.4476 513.23 72.3236C514.112 72.1996 515.01 72.3306 515.821 72.7018C518.214 74.0156 522.712 79.9824 513.34 106.641C538.923 122.843 552.236 125.394 562.339 129.254C592.131 135.297 618.582 146.89 630.023 159.57C639.985 170.642 642.904 192.109 645.991 239.156C646.678 241.699 642.327 242.641 639.709 243.008C640.851 249.83 641.576 256.714 641.882 263.623C641.886 263.749 641.862 263.875 641.812 263.992C641.761 264.109 641.685 264.212 641.59 264.295C641.494 264.378 641.38 264.438 641.258 264.472C641.136 264.506 641.007 264.511 640.883 264.489C641.584 267.918 642.072 271.386 642.343 274.875C642.333 275.787 642.045 276.673 641.518 277.416C640.992 278.158 640.251 278.722 639.396 279.033C638.54 279.343 637.61 279.385 636.729 279.152C635.85 278.919 635.061 278.423 634.47 277.73C634.159 278.509 633.644 279.191 632.98 279.702C632.315 280.213 631.525 280.536 630.692 280.636C629.86 280.736 629.016 280.61 628.249 280.271C627.482 279.932 626.821 279.392 626.334 278.708C625.932 279.449 625.341 280.068 624.62 280.503C623.9 280.938 623.077 281.173 622.235 281.183C621.394 281.194 620.565 280.98 619.834 280.564C619.102 280.147 618.495 279.542 618.074 278.813C617.493 279.696 616.629 280.355 615.624 280.683C614.619 281.01 613.533 280.987 612.544 280.616C611.553 280.246 610.718 279.55 610.174 278.643C609.631 277.736 609.41 276.671 609.55 275.622C609.55 275.622 609.818 270.966 609.955 269.362C607.401 269.577 604.829 269.288 602.386 268.512C600.329 267.25 600.154 256.617 601.317 254.111C603.522 250.711 605.911 247.434 608.475 244.296C606.149 244.16 602.646 243.629 602.416 241.286C601.3 229.135 598.334 201.703 596.352 187.365L587.168 185.818C592.361 207.988 596.087 229.802 594.692 252.237C593.415 277.856 589.3 311.43 586.959 326.904C595.495 333.459 658.646 381.471 662.821 385.141C666.153 387.972 663.556 393.65 660.478 397.315C664.225 400.518 670.344 405.828 673.04 408.122C680.963 414.532 648.711 443.282 640.187 450.419C633.468 456.081 612.787 472.879 613.299 464.096C610.484 450.633 622.017 437.002 624.716 424.777C622.794 425.959 620.68 426.792 618.469 427.239C615.786 427.616 615.373 426.552 613.921 425.37C541.981 366.187 537.296 361.235 534.048 349.615C531.358 340.095 531.075 318.622 530.608 296.778C520.753 304.761 508.906 314.279 494.939 326.305C495.332 336.61 500.621 390.179 504.029 409.728C505.258 413.548 500.345 416.119 496.534 417.381C498.249 422.782 502.088 430.392 502.801 433.591C505.093 443.795 455.446 457.371 439.865 459.56C436.244 460.068 428.227 461.194 428.794 457.485C429.177 442.386 449.389 435.389 457.348 424.47C454.088 424.73 449.296 424.414 448.98 421.224C438.82 321.751 438.378 310.165 444.531 297.423C450.322 285.39 455.685 279.687 483.886 256.357C472.797 258.607 457.719 260.858 437.192 263.742C436.947 263.794 436.692 263.746 436.482 263.611C435.288 262.723 434.213 261.688 433.28 260.53L428.101 261.917C428.445 262.777 428.508 263.724 428.28 264.622C428.052 265.519 427.547 266.321 426.835 266.913C426.123 267.504 425.242 267.854 424.319 267.913C423.395 267.972 422.478 267.736 421.696 267.239C421.601 267.968 421.327 268.662 420.897 269.259C420.469 269.855 419.898 270.336 419.238 270.657C418.577 270.98 417.847 271.132 417.114 271.102C416.38 271.072 415.664 270.86 415.033 270.485C414.839 271.209 414.464 271.873 413.945 272.414C413.426 272.954 412.778 273.355 412.062 273.577C411.346 273.8 410.586 273.837 409.852 273.686C409.117 273.535 408.433 273.2 407.863 272.713C407.549 273.506 407.008 274.188 406.308 274.672C405.607 275.158 404.778 275.424 403.927 275.438C403.075 275.451 402.238 275.212 401.522 274.75C400.806 274.288 400.243 273.624 399.904 272.842C399.862 272.55 399.826 272.291 399.785 272.001C395.983 273.557 392.537 274.141 390.273 270.697C386.761 272.445 384.078 270.941 382.118 267.553C381.406 267.769 380.647 267.768 379.935 267.551C379.224 267.334 378.593 266.91 378.123 266.333C377.475 265.777 376.981 265.063 376.689 264.26C376.396 263.457 376.317 262.592 376.456 261.75C375.579 261.199 374.852 260.438 374.34 259.538C373.828 258.636 373.547 257.622 373.522 256.586C372.051 255.506 369.861 253.999 367.607 252.501C365.632 254.626 362.081 257.039 359.979 255.222C345.657 247.137 316.884 228.645 306.774 221.915L306.374 223.522C342.615 280.132 349.418 291.945 351.783 302.436C354.513 314.591 354.189 324.007 343.939 414.767C343.922 414.916 343.868 415.057 343.781 415.179C343.694 415.301 343.578 415.399 343.444 415.463C341.416 416.353 339.302 417.027 337.133 417.472C347.548 427.784 356.273 439.676 362.986 452.708C365.481 458.033 312.728 446.935 294.241 432.671C294.111 432.577 294.011 432.446 293.955 432.296C293.898 432.145 293.888 431.981 293.924 431.825C295.271 425.372 297.232 419.064 299.781 412.986C298.608 412.39 297.51 411.659 296.507 410.807C296.4 410.724 296.315 410.614 296.263 410.488C296.211 410.362 296.192 410.225 296.209 410.09C299.016 377.062 301.43 351.086 303.321 316.471C300.116 310.322 293.572 302.695 279.105 282.324C276.204 318.202 274.745 329.395 269.401 337.339C262.719 347.253 254.685 353.892 183.49 408.34C182.81 408.898 179.673 407.92 178.838 407.608C179.681 425.802 176.612 460.714 172.649 457.378C160.53 446.443 141.432 404.384 138.511 388.527C138.525 388.404 138.565 388.285 138.63 388.179C138.695 388.073 138.783 387.982 138.886 387.914ZM162.571 232.805C165.757 230.609 172.804 229.85 183.032 230.623C188.299 231.038 198.587 232.232 202.535 235.703C202.986 230.228 203.425 225.382 203.771 221.044C198.027 213.008 169.079 211.566 163.616 216.787C163.2 221.564 162.856 226.859 162.54 232.578L162.571 232.805ZM267.334 110.42C271.799 117.944 277.203 124.869 283.416 131.027C286.326 126.686 288.701 122.009 290.49 117.099C283.179 114.995 276.158 111.992 269.586 108.157L267.334 110.42ZM304.091 105.982C307.273 105.171 307.873 100.996 308.655 78.1847C305.843 78.5797 302.117 78.5755 297.713 78.6665C294.516 84.0647 293.151 85.6096 291.798 85.3701C291.12 85.2349 290.665 84.5731 290.505 83.4407C289.832 78.6518 285.633 79.9677 286.614 87.6497C286.626 87.8142 286.593 87.9788 286.516 88.1252C282.392 95.251 277.165 101.677 271.029 107.162C277.415 110.797 284.224 113.63 291.301 115.598C292.757 114.464 293.991 113.072 294.943 111.49C294.884 111.069 294.825 110.649 294.539 110.26C291.615 107.015 289.348 103.232 287.864 99.1218C287.808 98.9495 287.807 98.7639 287.863 98.5916C287.919 98.4193 288.029 98.2695 288.176 98.1637C288.323 98.0587 288.5 98.0033 288.681 98.0054C288.862 98.0075 289.038 98.0685 289.182 98.1777C298.644 105.691 300.876 106.565 304.124 105.746L304.091 105.982ZM295.738 113.391C294.849 114.65 293.786 115.777 292.582 116.739C294.46 119.774 296.562 123.24 298.148 126.548C298.23 121.972 297.423 117.424 295.77 113.156L295.738 113.391ZM501.091 100.409C500.943 100.271 500.847 100.087 500.819 99.8865C500.791 99.6862 500.833 99.4824 500.936 99.3095C504.132 92.2606 499.83 89.5658 498.385 94.0584C497.257 97.5166 493.475 98.0482 492.54 89.9965C491.073 89.8137 489.622 89.5209 488.198 89.1217C489.149 108.786 490.706 114.703 492.95 117.061C495.448 118.888 501.438 111.084 503.267 108.616C503.368 108.47 503.512 108.36 503.679 108.3C503.846 108.241 504.028 108.234 504.198 108.284C504.369 108.333 504.52 108.433 504.63 108.573C504.74 108.711 504.804 108.882 504.812 109.059C505.335 115.354 504.761 120.186 500.376 124.399C515.273 123.68 530.206 124.377 544.972 126.481C563.48 128.697 542.589 129.455 501.091 100.409ZM641.013 275.029C640.921 272.501 640.285 269.852 639.585 264.869C638.979 260.566 634.076 260.858 634.372 265.074C634.608 268.577 634.893 271.102 635.285 274.564C635.296 274.656 635.306 274.747 635.316 274.84C635.291 275.587 635.562 276.315 636.072 276.862C636.582 277.409 637.287 277.731 638.034 277.757C638.781 277.784 639.508 277.512 640.054 277.002C640.6 276.492 640.922 275.786 640.948 275.038L641.013 275.029ZM633.333 276.438C633.426 273.819 632.979 271.11 632.566 265.822C632.191 261.288 627.067 261.414 627.123 265.795C627.17 269.649 627.321 272.366 627.494 275.939C627.547 276.633 627.846 277.286 628.335 277.781C628.824 278.276 629.474 278.581 630.166 278.642C630.859 278.703 631.551 278.516 632.119 278.114C632.688 277.713 633.094 277.121 633.268 276.447L633.333 276.438ZM625.405 277.024C625.627 274.386 625.301 271.363 625.137 266.206C625.033 262.657 621.979 261.8 620.447 263.566C623.434 265.819 622.805 268.612 620.283 268.967L619.507 269.076C619.457 271.294 619.481 272.874 619.474 276.34C619.519 277.041 619.809 277.704 620.293 278.213C620.776 278.723 621.422 279.047 622.12 279.13C622.817 279.213 623.521 279.048 624.109 278.665C624.697 278.282 625.132 277.705 625.34 277.033L625.405 277.024ZM617.321 276.972C617.617 274.37 617.745 271.751 617.702 269.131C616.086 269.359 614.05 269.414 612.01 269.437C611.886 271.136 611.589 275.831 611.589 275.831C611.575 276.519 611.804 277.191 612.234 277.729C612.664 278.267 613.269 278.637 613.944 278.774C614.618 278.911 615.32 278.806 615.925 278.479C616.531 278.151 617.002 277.621 617.257 276.981L617.321 276.972ZM608.237 247.991C606.391 250.187 604.713 252.518 603.218 254.966C602.33 259.008 602.479 263.209 603.649 267.18C605.424 268.316 617.124 267.596 620.13 267.174C620.647 267.101 620.906 267.065 620.875 266.607C620.724 265.539 618.445 262.923 611.351 262.171C611.123 262.168 610.906 262.075 610.747 261.911C610.588 261.748 610.5 261.528 610.503 261.3C610.506 261.072 610.599 260.855 610.762 260.696C610.925 260.537 611.145 260.449 611.373 260.452C620.206 259.739 624.446 256.371 624.779 249.825C624.772 249.707 624.79 249.589 624.831 249.479C624.873 249.368 624.937 249.267 625.02 249.183C625.102 249.099 625.201 249.033 625.311 248.989C625.42 248.945 625.537 248.925 625.656 248.929C625.773 248.933 625.889 248.962 625.996 249.013C626.101 249.065 626.196 249.138 626.272 249.227C626.349 249.317 626.405 249.422 626.439 249.535C626.473 249.648 626.483 249.767 626.468 249.884C626.46 252.747 625.403 255.507 623.498 257.642C621.593 259.776 618.971 261.137 616.13 261.466C617.098 261.746 618.034 262.123 618.926 262.592C619.353 262.043 619.909 261.608 620.544 261.328C621.179 261.046 621.874 260.927 622.567 260.979C623.26 261.033 623.929 261.256 624.515 261.631C625.1 262.005 625.584 262.519 625.923 263.126C626.246 262.481 626.731 261.931 627.33 261.529C627.929 261.127 628.622 260.887 629.341 260.832C630.06 260.778 630.781 260.911 631.434 261.218C632.086 261.524 632.649 261.996 633.066 262.585C633.375 261.865 633.884 261.248 634.531 260.808C635.179 260.367 635.938 260.122 636.72 260.098C637.503 260.075 638.276 260.275 638.949 260.676C639.621 261.078 640.165 261.662 640.518 262.362C639.988 253.983 638.937 245.646 637.371 237.398C628.841 236.6 620.243 236.964 611.811 238.481C611.997 240.243 611.765 242.024 611.132 243.678C610.499 245.332 609.485 246.813 608.172 248L608.237 247.991ZM644.591 237.406C644.246 232.373 643.906 227.604 643.578 223.162C637.136 216.973 607.496 218.334 602.692 223.793C603.326 229.709 603.887 235.107 604.275 239.276C610.475 235.072 637.24 233.655 644.527 237.415L644.591 237.406ZM614.66 460.407C621.965 446.71 659.401 411.226 670.137 407.87C664.597 403.171 655.432 394.956 648.823 389.681C639.74 395.663 631.458 402.781 624.177 410.863C634.372 425.697 614.082 443.396 614.595 460.416L614.66 460.407ZM501.721 407.38C501.717 407.356 501.713 407.331 501.709 407.306C498.105 385.14 493.337 335.066 493.065 326.107C493.061 325.975 493.085 325.844 493.137 325.724C493.188 325.603 493.264 325.494 493.362 325.405C546.831 279.452 569.049 268.675 570.308 251.836C570.324 251.61 570.429 251.4 570.6 251.253C570.771 251.105 570.994 251.031 571.219 251.047C571.444 251.064 571.654 251.169 571.802 251.341C571.95 251.512 572.023 251.734 572.007 251.96C571.29 261.167 564.969 268.49 551.765 279.617C544.854 301.088 539.12 322.922 534.588 345.019C537.198 359.831 540.957 363.361 614.123 423.527C615.071 416.432 627.565 404.48 632.889 399.674C638.736 394.365 650.542 384.556 658.682 384.072C651.271 378.251 594.007 334.592 585.429 327.977C585.308 327.882 585.213 327.758 585.153 327.617C585.093 327.475 585.069 327.32 585.084 327.168C587.457 311.689 591.698 277.834 593.113 252.261C593.561 244.394 593.443 236.504 592.761 228.652C580.909 222.663 558.975 220.927 530.254 223.676C531.945 240.86 527.396 243.446 516.631 251.987C516.589 252.02 516.546 252.054 516.504 252.088C477.905 282.914 468.73 290.241 462.292 303.473C457.614 313.105 460.342 326.415 469.456 409.307C476.483 407.762 495.299 403.843 501.709 407.306C501.746 407.326 501.782 407.346 501.818 407.366L501.721 407.38ZM430.739 454.672C430.777 454.639 430.817 454.606 430.856 454.574C441.332 445.92 489.922 429.871 500.252 431.871C497.678 424.578 495.02 421.85 492.205 407.694C481.927 408.331 471.764 410.224 461.946 413.332C464.704 432.016 434.787 438.389 430.856 454.574C430.849 454.602 430.842 454.63 430.836 454.658L430.739 454.672ZM446.034 298.267C440.136 310.48 440.481 321.847 450.289 417.873C453.755 413.69 462.523 411.106 467.941 409.784C458.818 326.596 455.975 312.939 460.936 302.74C467.975 288.321 478.507 280.473 521.5 246.056C528.196 240.694 529.924 235.634 528.726 223.824L520.354 224.77C518.754 236.84 515.29 241.979 508.626 247.568C504.709 250.89 498.194 253.323 487.424 255.727C457.248 280.491 451.849 286.165 446.034 298.267ZM458.225 259.071C487.282 254.724 501.217 251.611 507.521 246.271C519.684 235.95 520.816 226.882 519.013 170.68C519.019 170.471 519.094 170.27 519.226 170.108C519.359 169.946 519.541 169.833 519.745 169.785C519.955 169.762 520.168 169.816 520.342 169.937C520.516 170.058 520.641 170.238 520.694 170.443C523.969 185.063 526.575 199.611 528.979 213.197C557.239 209.986 579.603 211.264 591.599 216.871C587.932 193.848 582.697 171.102 575.931 148.791C575.869 148.573 575.897 148.338 576.008 148.14C576.12 147.942 576.305 147.796 576.524 147.735C576.742 147.674 576.976 147.702 577.175 147.813C577.372 147.924 577.518 148.11 577.58 148.329C580.237 157.854 582.679 166.783 584.642 175.119C592.435 179.714 600.471 183.883 608.715 187.608C608.901 187.692 609.051 187.84 609.136 188.025C609.222 188.211 609.239 188.422 609.182 188.618C609.126 188.815 609 188.984 608.829 189.095C608.657 189.207 608.452 189.252 608.249 189.224C605.632 188.899 601.995 188.354 598.161 187.804C599.393 196.573 600.911 209.953 602.179 221.785C609.198 216.84 634.642 215.641 643.102 220.952C640.432 186.946 637.162 170.016 628.885 160.852C615.727 146.038 580.997 132.539 544.715 128.167C505.119 123.435 483.948 125.486 476.099 134.838C470.619 141.349 470.096 150.991 476.494 210.343C477.529 210.198 478.365 209.816 479.039 209.688C479.148 209.66 479.261 209.654 479.372 209.669C479.483 209.684 479.59 209.722 479.687 209.778C479.784 209.836 479.869 209.911 479.936 210C480.004 210.09 480.053 210.192 480.081 210.301C480.109 210.409 480.117 210.523 480.101 210.634C480.086 210.745 480.049 210.852 479.991 210.949C479.934 211.046 479.859 211.131 479.77 211.198C479.68 211.266 479.579 211.316 479.47 211.344C476.288 212.154 462.079 215.898 449.852 219.201C443.806 227.078 447.936 252.466 458.225 259.071ZM437.247 262.019L455.672 259.43C446.404 251.658 442.338 229.528 447.27 219.827C440.35 221.723 434.322 223.396 431.8 224.211C425.467 232.162 427.585 254.962 437.256 262.083L437.247 262.019ZM422.065 265.174C422.498 265.661 423.095 265.971 423.742 266.044C424.389 266.118 425.039 265.95 425.57 265.573C426.101 265.196 426.474 264.637 426.618 264.001C426.762 263.366 426.667 262.7 426.351 262.13C425.206 260.081 423.996 258.04 423.209 256.897C421 253.611 417.229 255.625 419.007 259.368C419.641 261.061 421.343 264.022 422.074 265.239L422.065 265.174ZM412.622 261.783C413.449 263.91 414.317 266.098 415.246 268.014C416.67 271.113 421.282 268.749 419.715 265.109C419.132 263.772 417.919 261.237 417.004 259.418C415.225 255.907 411.093 257.939 412.631 261.847L412.622 261.783ZM406.394 264.373C406.984 266.511 407.686 268.614 408.5 270.677C408.785 271.311 409.311 271.805 409.96 272.051C410.61 272.297 411.331 272.274 411.964 271.989C412.597 271.703 413.09 271.177 413.336 270.526C413.581 269.876 413.559 269.155 413.273 268.521C412.593 266.736 411.629 264.331 410.779 262.273C409.185 258.669 405.257 260.508 406.384 264.54L406.394 264.373ZM400.07 266.285C400.416 268.327 400.91 270.342 401.543 272.314C402.521 275.048 406.919 273.506 406.352 271.11C406.197 270.01 404.977 266.256 404.357 264.429C403.128 260.84 399.403 262.485 400.079 266.35L400.07 266.285ZM377.027 260.185C379.346 257.064 382.242 254.417 385.556 252.387C385.74 252.274 385.959 252.234 386.17 252.277C386.381 252.319 386.569 252.44 386.693 252.616C386.819 252.791 386.873 253.008 386.845 253.221C386.817 253.435 386.708 253.63 386.541 253.767C384.836 254.996 378.183 259.495 377.858 262.344C377.842 262.862 377.948 263.376 378.169 263.844C378.389 264.312 378.717 264.721 379.127 265.037C380.476 266.432 382.124 266.893 389.996 259.584C390.163 259.429 390.384 259.346 390.611 259.355C390.837 259.363 391.051 259.462 391.206 259.628C391.36 259.795 391.443 260.015 391.434 260.243C391.426 260.47 391.328 260.684 391.162 260.839C388.861 263.141 386.288 265.153 383.5 266.831C383.8 267.523 384.253 268.136 384.825 268.628C385.397 269.119 386.071 269.475 386.799 269.667C389.633 270.127 392.923 266.332 394.643 264.737C394.815 264.587 395.039 264.51 395.267 264.525C395.495 264.539 395.707 264.644 395.857 264.815C396.009 264.986 396.085 265.21 396.071 265.438C396.056 265.666 395.953 265.879 395.781 266.03C394.444 267.406 393.031 268.706 391.549 269.924C393.339 272.576 396.056 271.732 399.11 270.478C398.928 269.184 398.552 267.917 398.338 266.628C397.448 261.704 401.885 259.266 404.575 261.758C404.694 261.124 404.972 260.531 405.384 260.034C405.796 259.538 406.327 259.155 406.928 258.922C407.529 258.689 408.18 258.613 408.819 258.702C409.457 258.791 410.062 259.042 410.577 259.43C410.663 258.751 410.925 258.107 411.337 257.56C411.749 257.014 412.297 256.586 412.925 256.317C413.554 256.048 414.243 255.95 414.922 256.03C415.601 256.11 416.247 256.367 416.797 256.775C417.441 253.384 421.88 252.134 424.504 256.022C425.208 257.045 426.234 258.715 427.209 260.492L432.068 259.182C426.89 250.444 425.219 240.065 427.392 230.143C425.135 230.855 422.841 231.442 420.519 231.901C419.269 232.132 417.977 231.992 416.804 231.499C411.36 229.36 408.492 226.068 406.287 227.037L403.81 228.177C406.883 231.045 409.988 234.37 414 238.756C418.012 243.141 410.5 248.091 399.232 238.521C396.066 240.543 392.475 241.804 388.74 242.206C379.512 248.782 375.014 253.604 375.063 256.996C375.133 257.65 375.346 258.281 375.687 258.843C376.028 259.405 376.489 259.886 377.036 260.25L377.027 260.185ZM373.696 254.779C374.761 251.33 378.637 247.486 385.722 242.069C384.499 242.023 383.287 241.828 382.113 241.488C381.926 241.404 381.776 241.255 381.69 241.07C381.604 240.884 381.588 240.674 381.645 240.477C381.701 240.281 381.827 240.112 381.998 240C382.169 239.889 382.375 239.843 382.578 239.872C385.376 240.469 388.267 240.477 391.068 239.896C393.869 239.315 396.519 238.158 398.849 236.497C399.009 236.385 399.202 236.333 399.396 236.347C399.59 236.363 399.773 236.443 399.915 236.578C408.716 244.316 415.271 242.405 412.775 239.654C408.78 235.071 404.484 230.758 399.917 226.745C398.719 225.725 396.327 226.292 393.361 227.006C384.05 229.238 385.404 228.553 377.34 223.482C370.848 230.244 365.624 238.12 361.918 246.734C364.877 248.792 370.441 252.498 373.705 254.845L373.696 254.779ZM346.534 245.398C351.029 248.065 355.298 250.765 358.812 252.779C358.394 245.117 373.035 221.942 380.816 219.133C377.524 217.055 372.909 214.239 367.653 211.084C356.964 213.84 344.527 236.045 346.529 245.366L346.534 245.398ZM308.036 207.912C312.027 189.401 317.324 162.129 317.257 158.838C316.95 151.968 315.991 145.143 314.391 138.454C314.402 138.249 314.484 138.055 314.622 137.905C314.76 137.753 314.946 137.655 315.149 137.627C315.351 137.599 315.558 137.641 315.731 137.749C315.906 137.856 316.038 138.02 316.105 138.213C317.737 145.018 318.713 151.963 319.02 158.954C319.066 161.389 316.447 175.583 313.53 190.246C313.583 202.461 314.646 214.65 316.709 226.689C324.652 231.842 335.187 238.545 344.712 244.4C343.986 234.075 355.125 214.362 365.794 210.058C357.619 205.136 348.472 199.624 340.201 194.253C340.1 194.19 340.014 194.107 339.949 194.008C339.884 193.909 339.841 193.797 339.823 193.679C331.798 146.204 331.12 139.271 322.355 129.911C315.256 122.329 302.142 119.553 298.874 117.174C299.775 121.621 300.115 126.162 299.884 130.693C299.858 130.883 299.772 131.06 299.636 131.197C299.5 131.334 299.324 131.422 299.133 131.448C298.943 131.476 298.749 131.439 298.581 131.345C298.413 131.252 298.28 131.105 298.203 130.929C297.726 129.529 297.149 128.166 296.476 126.849C296.24 128.482 295.835 130.087 295.27 131.637C297.028 138.749 307.724 187.169 308.225 190.728C306.806 195.571 304.778 200.213 302.19 204.543C302.122 204.639 302.037 204.719 301.938 204.78C301.839 204.84 301.728 204.88 301.613 204.896C301.498 204.912 301.381 204.905 301.269 204.874C301.156 204.843 301.051 204.789 300.961 204.716C299.283 203.335 290.189 194.912 290.154 193.498C290.102 185.388 290.816 138.17 291.428 132.21C290.1 130.632 288.884 128.961 287.791 127.211C286.764 129.171 285.571 131.039 284.225 132.794C284.159 132.895 284.072 132.979 283.97 133.044C283.868 133.108 283.754 133.15 283.635 133.167C283.515 133.184 283.394 133.175 283.278 133.141C283.162 133.107 283.055 133.049 282.964 132.971C276.474 126.582 270.821 119.394 266.145 111.577C260.508 116.031 259.456 115.816 252.49 117.62C252.439 117.634 252.389 117.647 252.338 117.66C217.633 126.881 196.662 132.452 180.38 152.432C171.336 163.602 166.86 175.846 163.883 214.704C171.838 210.089 196.414 211.618 204.011 218.766C206.605 190.322 207.339 186.392 210.702 183.115C215.98 177.985 219.558 175.767 253.174 167.744C253.365 167.701 253.565 167.726 253.74 167.815C253.915 167.903 254.054 168.049 254.133 168.228C254.213 168.408 254.228 168.609 254.177 168.798C254.125 168.987 254.009 169.152 253.849 169.266C246.049 174.809 238.667 180.919 231.762 187.547C231.457 190.296 231.151 193.275 230.826 196.356C248.219 210.575 291.798 215.506 308.032 207.88L308.036 207.912Z" fill="#0F0F0F"/>
<path d="M175.16 356.206C175.071 356.232 174.987 356.273 174.91 356.327L224.446 317.106C224.78 316.843 224.975 316.441 224.977 316.016L225.155 285.057C225.164 285.146 225.188 285.232 225.224 285.313C225.274 285.426 225.349 285.526 225.442 285.607C225.534 285.688 225.644 285.748 225.763 285.783C225.881 285.817 226.006 285.826 226.128 285.807C226.821 285.709 226.926 285.674 226.944 281.465L227.478 316.989C227.485 317.429 227.284 317.846 226.936 318.116L175.942 357.695C176.03 357.624 176.103 357.537 176.156 357.438C176.21 357.339 176.243 357.231 176.255 357.119C176.267 357.007 176.257 356.893 176.225 356.785C176.193 356.677 176.14 356.577 176.069 356.489C175.998 356.401 175.911 356.329 175.813 356.275C175.714 356.221 175.605 356.187 175.493 356.175C175.382 356.163 175.268 356.174 175.16 356.206Z" fill="#0F0F0F"/>
<path d="M458.225 259.07C487.282 254.723 501.217 251.61 507.521 246.27C519.684 235.949 520.816 226.881 519.013 170.679C519.019 170.469 519.094 170.268 519.226 170.107C519.359 169.945 519.541 169.831 519.745 169.784C519.955 169.761 520.168 169.814 520.342 169.936C520.516 170.057 520.641 170.237 520.694 170.442C523.969 185.061 526.575 199.609 528.979 213.196C557.239 209.984 579.603 211.263 591.599 216.87C587.932 193.846 582.697 171.1 575.931 148.79C575.869 148.571 575.897 148.337 576.008 148.139C576.12 147.94 576.305 147.795 576.524 147.733C576.742 147.672 576.976 147.7 577.175 147.811C577.372 147.923 577.518 148.108 577.58 148.328C580.237 157.853 582.679 166.781 584.642 175.117C592.435 179.712 600.471 183.881 608.715 187.606C608.901 187.69 609.051 187.838 609.136 188.024C609.222 188.209 609.239 188.42 609.182 188.616C609.126 188.813 609 188.983 608.829 189.094C608.657 189.205 608.452 189.251 608.249 189.223C605.632 188.897 601.995 188.352 598.161 187.802C599.393 196.571 600.912 209.952 602.179 221.784C609.198 216.839 634.642 215.639 643.102 220.951C640.432 186.945 637.162 170.015 628.885 160.85C615.727 146.036 580.997 132.537 544.715 128.165C505.119 123.434 483.948 125.484 476.099 134.836C470.619 141.347 470.096 150.99 476.494 210.341C477.529 210.196 478.365 209.815 479.039 209.686C479.148 209.658 479.261 209.652 479.372 209.668C479.483 209.683 479.59 209.72 479.687 209.777C479.784 209.834 479.869 209.909 479.936 209.999C480.004 210.088 480.053 210.191 480.081 210.299C480.109 210.408 480.117 210.521 480.101 210.633C480.086 210.743 480.049 210.85 479.991 210.948C479.934 211.044 479.859 211.129 479.77 211.196C479.68 211.264 479.579 211.314 479.47 211.342C476.288 212.152 462.079 215.897 449.852 219.199C443.806 227.076 447.936 252.464 458.225 259.07Z" fill="white"/>
<path d="M493.065 326.104C493.337 335.063 498.105 385.137 501.71 407.303C495.299 403.84 476.483 407.759 469.457 409.304C460.342 326.412 457.614 313.102 462.292 303.47C468.73 290.238 477.905 282.911 516.504 252.085L516.631 251.984C527.397 243.443 531.945 240.857 530.254 223.673C558.975 220.924 580.91 222.66 592.762 228.649C593.444 236.501 593.561 244.391 593.113 252.258C591.698 277.831 587.458 311.686 585.085 327.165C585.07 327.317 585.094 327.472 585.153 327.614C585.213 327.755 585.309 327.879 585.429 327.974C594.007 334.589 651.272 378.248 658.683 384.069C650.543 384.553 638.736 394.362 632.89 399.671C627.566 404.477 615.071 416.429 614.124 423.524C540.958 363.358 537.198 359.828 534.588 345.016C539.12 322.919 544.855 301.085 551.765 279.614C564.969 268.487 571.291 261.164 572.007 251.957C572.024 251.731 571.95 251.509 571.802 251.338C571.654 251.166 571.445 251.061 571.219 251.044C570.994 251.028 570.772 251.102 570.601 251.25C570.43 251.397 570.325 251.607 570.309 251.833C569.05 268.672 546.831 279.449 493.362 325.402C493.265 325.491 493.189 325.6 493.137 325.721C493.086 325.841 493.061 325.972 493.065 326.104Z" fill="#0F0F0F"/>
<path d="M644.591 237.403C644.246 232.37 643.906 227.6 643.578 223.159C637.137 216.969 607.496 218.33 602.692 223.789C603.326 229.706 603.887 235.104 604.276 239.273C610.475 235.069 637.24 233.651 644.527 237.412L644.591 237.403Z" fill="white"/>
<path d="M608.236 247.989C606.39 250.185 604.712 252.516 603.217 254.964C602.329 259.006 602.478 263.207 603.648 267.177C605.423 268.314 617.123 267.594 620.129 267.172C620.646 267.099 620.906 267.063 620.874 266.605C620.723 265.537 618.444 262.921 611.35 262.169C611.122 262.166 610.905 262.073 610.746 261.909C610.587 261.746 610.499 261.526 610.502 261.298C610.505 261.07 610.598 260.853 610.761 260.694C610.925 260.535 611.145 260.447 611.372 260.45C620.205 259.737 624.445 256.369 624.778 249.822C624.771 249.705 624.789 249.586 624.83 249.477C624.873 249.366 624.936 249.265 625.019 249.181C625.102 249.097 625.2 249.03 625.31 248.987C625.42 248.943 625.537 248.923 625.655 248.927C625.773 248.931 625.888 248.96 625.995 249.011C626.101 249.063 626.195 249.135 626.271 249.225C626.348 249.315 626.405 249.42 626.438 249.533C626.473 249.646 626.482 249.765 626.468 249.882C626.459 252.745 625.402 255.505 623.497 257.64C621.592 259.774 618.971 261.135 616.129 261.464C617.097 261.744 618.033 262.121 618.925 262.59C619.352 262.04 619.908 261.606 620.543 261.325C621.179 261.044 621.874 260.925 622.566 260.977C623.259 261.031 623.928 261.254 624.514 261.629C625.1 262.003 625.584 262.517 625.923 263.124C626.246 262.479 626.73 261.928 627.329 261.526C627.928 261.124 628.621 260.885 629.34 260.83C630.059 260.776 630.78 260.909 631.433 261.215C632.086 261.522 632.648 261.994 633.066 262.582C633.375 261.863 633.883 261.246 634.531 260.806C635.178 260.365 635.937 260.119 636.72 260.096C637.502 260.073 638.275 260.273 638.948 260.674C639.62 261.075 640.165 261.66 640.517 262.36C639.987 253.981 638.937 245.644 637.37 237.396C628.84 236.597 620.242 236.962 611.811 238.479C611.996 240.241 611.764 242.021 611.131 243.676C610.499 245.33 609.484 246.811 608.171 247.998L608.236 247.989Z" fill="white"/>
<path d="M641.013 275.028C640.921 272.501 640.285 269.851 639.585 264.868C638.98 260.565 634.076 260.858 634.372 265.073C634.608 268.576 634.893 271.101 635.285 274.563L635.317 274.839C635.291 275.586 635.562 276.314 636.072 276.861C636.582 277.408 637.287 277.73 638.034 277.757C638.781 277.783 639.508 277.512 640.054 277.002C640.601 276.491 640.922 275.785 640.948 275.037L641.013 275.028Z" fill="white"/>
<path d="M633.333 276.437C633.426 273.818 632.979 271.109 632.566 265.822C632.191 261.288 627.067 261.414 627.123 265.794C627.169 269.648 627.321 272.365 627.494 275.938C627.547 276.633 627.845 277.285 628.334 277.78C628.824 278.275 629.473 278.58 630.166 278.641C630.859 278.702 631.551 278.515 632.119 278.113C632.687 277.712 633.094 277.121 633.267 276.446L633.333 276.437Z" fill="white"/>
<path d="M625.405 277.023C625.627 274.385 625.301 271.362 625.137 266.205C625.033 262.657 621.979 261.799 620.447 263.565C623.434 265.818 622.805 268.611 620.283 268.966L619.507 269.075C619.457 271.293 619.481 272.873 619.474 276.339C619.519 277.04 619.809 277.703 620.292 278.212C620.776 278.722 621.422 279.046 622.119 279.129C622.816 279.212 623.52 279.047 624.109 278.664C624.697 278.281 625.132 277.704 625.34 277.032L625.405 277.023Z" fill="white"/>
<path d="M617.321 276.97C617.617 274.367 617.745 271.748 617.702 269.129C616.086 269.357 614.05 269.411 612.01 269.434C611.886 271.134 611.589 275.828 611.589 275.828C611.575 276.517 611.804 277.189 612.234 277.727C612.664 278.265 613.269 278.635 613.944 278.772C614.618 278.908 615.32 278.804 615.925 278.476C616.531 278.148 617.002 277.619 617.257 276.979L617.321 276.97Z" fill="white"/>
<path d="M501.091 100.408C500.943 100.27 500.847 100.086 500.819 99.8859C500.791 99.6856 500.832 99.4818 500.936 99.3088C504.132 92.26 499.83 89.5651 498.385 94.0577C497.256 97.516 493.474 98.0475 492.54 89.9958C491.073 89.813 489.621 89.5203 488.197 89.1211C489.149 108.785 490.706 114.703 492.95 117.061C495.448 118.887 501.438 111.083 503.267 108.616C503.368 108.47 503.512 108.359 503.679 108.3C503.845 108.24 504.027 108.234 504.198 108.283C504.369 108.332 504.519 108.433 504.629 108.572C504.74 108.711 504.804 108.881 504.812 109.059C505.335 115.353 504.761 120.186 500.376 124.398C515.273 123.68 530.206 124.376 544.972 126.48C563.48 128.697 542.589 129.455 501.091 100.408Z" fill="white"/>
<path d="M437.247 262.016L455.672 259.427C446.405 251.655 442.338 229.525 447.27 219.824C440.351 221.72 434.322 223.392 431.8 224.208C425.468 232.159 427.585 254.959 437.256 262.08L437.247 262.016Z" fill="white"/>
<path d="M446.035 298.267C440.136 310.48 440.482 321.847 450.289 417.873C453.756 413.69 462.523 411.106 467.941 409.784C458.818 326.596 455.976 312.939 460.937 302.74C467.975 288.321 478.508 280.473 521.5 246.056C528.196 240.694 529.924 235.634 528.726 223.824L520.354 224.77C518.754 236.84 515.29 241.979 508.626 247.568C504.709 250.89 498.194 253.323 487.424 255.727C457.248 280.491 451.849 286.166 446.035 298.267Z" fill="#0F0F0F"/>
<path d="M500.252 431.869C489.922 429.869 441.332 445.918 430.855 454.572C434.787 438.387 464.704 432.013 461.946 413.329C471.764 410.222 481.926 408.329 492.205 407.691C495.02 421.847 497.677 424.576 500.252 431.869Z" fill="white"/>
<path d="M614.66 460.406C621.965 446.709 659.401 411.225 670.137 407.869C664.597 403.169 655.433 394.955 648.823 389.68C639.74 395.662 631.458 402.78 624.177 410.862C634.372 425.696 614.082 443.395 614.596 460.415L614.66 460.406Z" fill="white"/>
<path d="M377.027 260.181C379.347 257.06 382.242 254.414 385.557 252.384C385.74 252.27 385.959 252.231 386.17 252.274C386.381 252.316 386.569 252.437 386.693 252.613C386.819 252.788 386.873 253.004 386.845 253.218C386.817 253.431 386.708 253.627 386.541 253.763C384.836 254.992 378.183 259.491 377.859 262.341C377.842 262.858 377.948 263.372 378.169 263.84C378.39 264.308 378.717 264.717 379.127 265.034C380.476 266.428 382.124 266.89 389.996 259.58C390.163 259.425 390.384 259.343 390.611 259.351C390.837 259.36 391.051 259.458 391.206 259.624C391.36 259.791 391.443 260.012 391.435 260.239C391.426 260.466 391.328 260.68 391.162 260.835C388.862 263.138 386.288 265.15 383.5 266.828C383.8 267.519 384.254 268.133 384.825 268.624C385.397 269.115 386.071 269.471 386.799 269.664C389.633 270.124 392.923 266.329 394.644 264.734C394.815 264.583 395.039 264.506 395.267 264.521C395.495 264.536 395.707 264.64 395.858 264.811C396.009 264.983 396.085 265.207 396.071 265.434C396.057 265.663 395.953 265.875 395.781 266.026C394.444 267.402 393.031 268.702 391.549 269.921C393.339 272.573 396.056 271.729 399.11 270.475C398.928 269.18 398.552 267.913 398.338 266.624C397.448 261.701 401.885 259.262 404.575 261.755C404.695 261.121 404.973 260.527 405.385 260.03C405.796 259.535 406.327 259.152 406.929 258.918C407.53 258.685 408.18 258.61 408.819 258.698C409.457 258.787 410.063 259.038 410.577 259.427C410.664 258.747 410.925 258.103 411.338 257.557C411.749 257.011 412.297 256.582 412.926 256.313C413.555 256.045 414.243 255.946 414.922 256.026C415.602 256.107 416.247 256.364 416.797 256.771C417.441 253.381 421.88 252.131 424.504 256.018C425.208 257.041 426.234 258.712 427.209 260.489L432.069 259.179C426.89 250.44 425.22 240.061 427.393 230.14C425.136 230.851 422.841 231.438 420.519 231.897C419.269 232.129 417.977 231.989 416.804 231.496C411.361 229.357 408.492 226.064 406.288 227.034L403.811 228.174C406.884 231.042 409.988 234.367 414 238.752C418.012 243.138 410.5 248.087 399.233 238.518C396.066 240.54 392.476 241.801 388.74 242.203C379.512 248.778 375.015 253.601 375.063 256.992C375.133 257.647 375.346 258.278 375.687 258.84C376.028 259.402 376.489 259.882 377.036 260.246L377.027 260.181Z" fill="white"/>
<path d="M373.696 254.778C374.761 251.328 378.638 247.484 385.722 242.067C384.5 242.021 383.288 241.826 382.113 241.486C381.927 241.402 381.777 241.253 381.691 241.068C381.604 240.882 381.588 240.672 381.645 240.475C381.702 240.279 381.827 240.11 381.998 239.998C382.17 239.887 382.376 239.841 382.578 239.87C385.376 240.467 388.268 240.475 391.068 239.894C393.87 239.314 396.519 238.156 398.849 236.495C399.009 236.383 399.202 236.331 399.397 236.346C399.591 236.361 399.774 236.442 399.915 236.576C408.716 244.314 415.272 242.403 412.775 239.653C408.78 235.069 404.485 230.756 399.917 226.743C398.719 225.723 396.327 226.29 393.361 227.004C384.05 229.236 385.404 228.551 377.34 223.48C370.848 230.242 365.624 238.118 361.918 246.732C364.878 248.79 370.442 252.497 373.706 254.843L373.696 254.778Z" fill="white"/>
<path d="M346.534 245.395C351.029 248.063 355.299 250.763 358.813 252.777C358.395 245.115 373.036 221.94 380.817 219.131C377.525 217.053 372.909 214.237 367.653 211.082C356.965 213.838 344.527 236.043 346.529 245.363L346.534 245.395Z" fill="white"/>
<path d="M308.037 207.909C312.028 189.399 317.325 162.126 317.258 158.835C316.951 151.965 315.992 145.14 314.392 138.451C314.403 138.246 314.484 138.052 314.622 137.902C314.76 137.75 314.947 137.652 315.149 137.624C315.351 137.596 315.558 137.638 315.732 137.746C315.906 137.853 316.039 138.017 316.105 138.21C317.737 145.015 318.714 151.96 319.021 158.951C319.066 161.386 316.447 175.58 313.531 190.243C313.583 202.458 314.646 214.647 316.709 226.686C324.652 231.839 335.187 238.542 344.713 244.397C343.986 234.072 355.126 214.359 365.795 210.055C357.62 205.133 348.472 199.621 340.201 194.25C340.101 194.187 340.014 194.104 339.949 194.005C339.884 193.906 339.841 193.794 339.824 193.676C331.799 146.201 331.121 139.268 322.355 129.908C315.257 122.326 302.143 119.55 298.874 117.171C299.776 121.618 300.115 126.159 299.884 130.69C299.859 130.88 299.772 131.057 299.636 131.194C299.501 131.331 299.324 131.419 299.134 131.445C298.943 131.473 298.749 131.436 298.581 131.342C298.413 131.249 298.281 131.102 298.204 130.926C297.727 129.526 297.149 128.163 296.476 126.846C296.24 128.48 295.836 130.084 295.271 131.635C297.028 138.746 307.725 187.166 308.225 190.725C306.807 195.568 304.779 200.21 302.19 204.54C302.123 204.636 302.038 204.716 301.938 204.777C301.839 204.837 301.729 204.877 301.614 204.893C301.498 204.909 301.381 204.902 301.269 204.871C301.157 204.84 301.052 204.786 300.962 204.713C299.284 203.332 290.189 194.909 290.155 193.495C290.103 185.385 290.816 138.167 291.428 132.207C290.1 130.63 288.885 128.959 287.792 127.208C286.765 129.168 285.572 131.036 284.226 132.791C284.159 132.892 284.072 132.976 283.971 133.041C283.868 133.105 283.754 133.147 283.635 133.164C283.516 133.181 283.394 133.172 283.278 133.138C283.163 133.104 283.056 133.046 282.965 132.968C276.474 126.58 270.822 119.391 266.145 111.574C260.508 116.028 259.456 115.813 252.49 117.617L252.338 117.657C217.633 126.878 196.663 132.449 180.381 152.429C171.337 163.599 166.86 175.843 163.884 214.701C171.839 210.086 196.414 211.615 204.012 218.763C206.606 190.319 207.339 186.389 210.703 183.112C215.981 177.982 219.558 175.764 253.175 167.741C253.366 167.698 253.566 167.723 253.741 167.812C253.915 167.9 254.054 168.046 254.134 168.225C254.214 168.405 254.228 168.606 254.177 168.795C254.125 168.984 254.01 169.149 253.85 169.263C246.05 174.806 238.668 180.916 231.763 187.544C231.457 190.293 231.151 193.272 230.826 196.354C248.219 210.572 291.798 215.503 308.033 207.877L308.037 207.909Z" fill="white"/>
<path d="M267.334 110.42C271.8 117.943 277.204 124.868 283.416 131.026C286.326 126.686 288.702 122.009 290.491 117.098C283.18 114.995 276.158 111.992 269.587 108.156L267.334 110.42Z" fill="white"/>
<path d="M295.738 113.388C294.849 114.647 293.786 115.774 292.582 116.735C294.459 119.77 296.562 123.237 298.148 126.545C298.23 121.969 297.423 117.42 295.77 113.152L295.738 113.388Z" fill="white"/>
<path d="M304.091 105.98C307.274 105.17 307.873 100.995 308.655 78.1836C305.843 78.5786 302.117 78.5744 297.713 78.6654C294.516 84.0636 293.152 85.6085 291.799 85.369C291.121 85.2338 290.665 84.572 290.506 83.4396C289.832 78.6507 285.634 79.9666 286.614 87.6486C286.627 87.8131 286.593 87.9777 286.516 88.1241C282.392 95.25 277.165 101.675 271.029 107.161C277.415 110.796 284.224 113.629 291.301 115.597C292.757 114.463 293.991 113.071 294.943 111.489C294.885 111.068 294.825 110.648 294.54 110.259C291.615 107.013 289.348 103.231 287.865 99.1207C287.808 98.9484 287.807 98.7628 287.863 98.5905C287.919 98.4183 288.029 98.2684 288.176 98.1626C288.324 98.0576 288.5 98.0023 288.682 98.0044C288.862 98.0065 289.038 98.0674 289.182 98.1766C298.644 105.69 300.877 106.564 304.124 105.745L304.091 105.98Z" fill="white"/>
<path d="M162.572 232.806C165.757 230.609 172.804 229.85 183.032 230.623C188.299 231.039 198.587 232.233 202.536 235.704C202.986 230.228 203.425 225.383 203.772 221.044C198.027 213.009 169.079 211.566 163.617 216.788C163.2 221.565 162.857 226.859 162.54 232.579L162.572 232.806Z" fill="white"/>
<path d="M422.065 265.172C422.498 265.658 423.095 265.968 423.742 266.041C424.389 266.115 425.04 265.947 425.571 265.57C426.101 265.193 426.474 264.634 426.618 263.999C426.762 263.363 426.668 262.697 426.352 262.127C425.206 260.078 423.996 258.037 423.209 256.894C421 253.608 417.229 255.623 419.007 259.365C419.641 261.058 421.343 264.019 422.074 265.236L422.065 265.172Z" fill="white"/>
<path d="M412.622 261.782C413.449 263.909 414.317 266.097 415.246 268.013C416.67 271.112 421.282 268.748 419.716 265.108C419.132 263.771 417.919 261.236 417.004 259.417C415.225 255.906 411.093 257.938 412.632 261.846L412.622 261.782Z" fill="white"/>
<path d="M406.394 264.374C406.983 266.511 407.686 268.615 408.499 270.677C408.785 271.311 409.311 271.805 409.96 272.051C410.61 272.297 411.331 272.275 411.963 271.989C412.597 271.703 413.09 271.177 413.336 270.527C413.581 269.877 413.558 269.156 413.273 268.522C412.593 266.737 411.629 264.332 410.779 262.273C409.184 258.669 405.257 260.509 406.384 264.54L406.394 264.374Z" fill="white"/>
<path d="M400.069 266.284C400.416 268.326 400.909 270.341 401.543 272.313C402.521 275.046 406.919 273.504 406.351 271.109C406.197 270.009 404.977 266.254 404.357 264.427C403.128 260.838 399.403 262.484 400.078 266.348L400.069 266.284Z" fill="white"/>
<path d="M154.655 375.336C158.18 372.036 168.9 363.403 175.942 357.695L226.936 318.116C227.284 317.846 227.485 317.429 227.478 316.989L226.945 281.465C226.967 276.458 226.868 265.546 227.495 241.599C227.766 231.332 228.678 219.061 229.75 207.461C233.583 210.315 237.78 212.643 242.228 214.386C239.573 243.333 236.961 286.892 238.23 315.618L237.936 315.882C236.435 317.233 234.372 319.088 231.81 321.304C231.639 321.455 231.534 321.668 231.52 321.896C231.506 322.123 231.583 322.348 231.733 322.519C231.885 322.691 232.097 322.795 232.325 322.809C232.552 322.824 232.776 322.747 232.947 322.596C240.2 316.265 239.992 316.426 239.923 315.941C238.658 287.478 241.358 244.072 243.87 215.046C258.148 220.251 273.307 222.605 288.488 221.975C287.105 236.754 287.039 237.225 282.643 237.612C282.533 237.618 282.426 237.647 282.327 237.696C282.228 237.745 282.141 237.814 282.069 237.898C281.998 237.981 281.945 238.079 281.912 238.184C281.88 238.29 281.868 238.401 281.88 238.511C281.887 238.622 281.915 238.731 281.964 238.832C282.013 238.933 282.082 239.023 282.166 239.097C282.249 239.171 282.348 239.228 282.453 239.264C282.559 239.3 282.671 239.315 282.783 239.308C288.924 238.675 288.939 236.199 290.206 221.767C295.488 221.506 300.707 220.506 305.71 218.797C304.647 223.895 304.384 223.668 304.683 224.154C340.962 280.792 347.76 292.573 350.089 302.805C352.751 314.705 352.416 324.057 342.297 414.106C328.897 419.849 305.251 415.78 297.83 409.894C297.955 407.731 305.839 317.964 304.837 315.993C303.581 313.665 302.165 311.427 300.599 309.296C292.107 292.46 285.594 274.696 281.191 256.359C283.677 255.77 286.064 254.823 288.279 253.548C288.467 253.428 288.601 253.241 288.656 253.025C288.712 252.809 288.684 252.58 288.577 252.385C287.744 250.918 286.405 253.581 279.994 254.878C279.814 254.913 279.649 255.005 279.526 255.141C279.402 255.277 279.326 255.45 279.309 255.634C274.978 310.883 274.308 326.75 267.792 336.442C261.276 346.134 253.271 352.736 182.556 406.854C175.365 406.115 163.682 396.637 157.998 386.217C162.123 382.733 190.631 358.535 190.631 358.535C190.716 358.462 190.786 358.374 190.836 358.274C190.887 358.174 190.918 358.066 190.926 357.954C190.936 357.842 190.922 357.73 190.888 357.624C190.853 357.517 190.798 357.419 190.725 357.334C190.653 357.248 190.564 357.178 190.465 357.128C190.365 357.077 190.257 357.046 190.145 357.038C190.033 357.029 189.921 357.042 189.815 357.076C189.709 357.11 189.61 357.166 189.525 357.239C189.525 357.239 161.503 381.138 157.151 384.884C155.654 381.914 154.802 378.66 154.655 375.336Z" fill="#0F0F0F"/>
<path d="M201.86 260.247C202.033 260.177 202.178 260.052 202.273 259.895C201.929 260.552 201.329 261.61 200.291 262.162C198.858 262.922 196.352 262.346 196.139 262.06C196.155 261.721 196.172 261.382 196.19 261.043C196.19 261.043 198.632 261.635 199.699 260.769C200.238 260.33 200.665 259.324 200.739 259.145C200.747 259.127 200.75 259.117 200.75 259.117C200.746 259.126 200.742 259.136 200.739 259.145C200.662 259.348 200.663 259.572 200.745 259.773C200.83 259.984 200.995 260.152 201.205 260.241C201.414 260.33 201.65 260.332 201.86 260.247Z" fill="#0F0F0F"/>
<path d="M200.751 259.114C200.747 259.123 200.743 259.133 200.74 259.142C200.666 259.322 200.239 260.327 199.699 260.766C198.633 261.632 196.191 261.04 196.191 261.04C196.339 258.402 196.59 255.769 196.946 253.149C196.993 252.927 196.951 252.696 196.829 252.507C196.706 252.317 196.513 252.183 196.292 252.135C196.071 252.088 195.84 252.13 195.65 252.252C195.461 252.375 195.327 252.568 195.28 252.789C194.491 258.74 194.233 264.75 194.508 270.748C194.628 271.606 194.403 272.477 193.883 273.169C193.362 273.861 192.588 274.318 191.73 274.438C190.873 274.559 190.003 274.333 189.311 273.811C188.619 273.29 188.163 272.514 188.043 271.656C187.585 269.338 187.385 266.975 187.448 264.613C187.455 264.384 187.372 264.162 187.215 263.996C187.059 263.829 186.843 263.731 186.614 263.724C186.386 263.716 186.164 263.8 185.998 263.956C185.831 264.113 185.733 264.33 185.726 264.558C185.648 267.293 185.933 270.027 186.572 272.688C186.158 273.186 185.626 273.573 185.024 273.812C184.423 274.052 183.771 274.136 183.128 274.06C182.485 273.983 181.871 273.746 181.342 273.372C180.814 272.997 180.388 272.496 180.102 271.914C179.308 269.27 178.921 266.521 178.956 263.76C178.924 263.538 178.805 263.336 178.626 263.2C178.446 263.065 178.219 263.006 177.997 263.037C177.774 263.068 177.572 263.187 177.437 263.367C177.302 263.547 177.243 263.774 177.274 263.997C177.427 266.72 177.808 269.426 178.411 272.086C175.586 274.264 172.732 272.95 172.145 270.656C171.551 268.072 171.181 265.442 171.04 262.794C171.008 262.571 170.89 262.369 170.71 262.234C170.531 262.098 170.304 262.04 170.082 262.071C169.858 262.102 169.657 262.221 169.522 262.401C169.386 262.58 169.328 262.807 169.359 263.03C169.497 265.854 169.891 268.658 170.537 271.411C169.653 271.904 168.611 272.028 167.635 271.758C166.659 271.488 165.829 270.843 165.324 269.965C164.141 265.539 163.641 260.958 163.842 256.381C164.813 244.762 168.117 238.952 168.856 232.25C177.768 231.345 186.77 231.955 195.481 234.052C195.093 236.234 195.105 238.468 195.517 240.646C196.176 243.457 202.029 248.277 202.379 250.768C202.63 253.649 202.066 256.541 200.751 259.114Z" fill="white"/>
<path d="M174.865 356.363C166.85 362.9 156.718 371.022 153.198 374.354C153.044 374.514 152.956 374.727 152.952 374.95C152.948 376.811 153.208 378.663 153.725 380.45C148.62 382.607 143.662 385.101 138.886 387.914C138.783 387.982 138.695 388.073 138.63 388.179C138.565 388.285 138.525 388.404 138.511 388.527C141.432 404.384 160.53 446.443 172.649 457.378C176.612 460.714 179.681 425.802 178.838 407.608C179.673 407.92 182.81 408.898 183.49 408.34C254.685 353.892 262.719 347.253 269.401 337.339C274.745 329.395 276.204 318.202 279.105 282.324C293.572 302.695 300.116 310.322 303.321 316.471C301.43 351.086 299.016 377.062 296.209 410.09C296.192 410.225 296.211 410.362 296.263 410.488C296.315 410.614 296.4 410.724 296.507 410.807C297.51 411.659 298.608 412.39 299.781 412.986C297.232 419.064 295.271 425.372 293.924 431.825C293.888 431.981 293.898 432.145 293.955 432.296C294.011 432.446 294.111 432.577 294.241 432.671C312.728 446.935 365.481 458.033 362.986 452.708C356.273 439.676 347.548 427.784 337.133 417.472C339.302 417.027 341.416 416.353 343.444 415.463C343.578 415.399 343.694 415.301 343.781 415.179C343.868 415.057 343.922 414.916 343.939 414.767C354.189 324.007 354.513 314.591 351.783 302.436C349.418 291.945 342.615 280.132 306.374 223.522L306.774 221.915C316.884 228.645 345.657 247.137 359.979 255.222C362.081 257.039 365.632 254.626 367.607 252.501C369.861 253.999 372.051 255.506 373.522 256.586C373.547 257.622 373.828 258.636 374.34 259.538C374.852 260.438 375.579 261.199 376.456 261.75C376.317 262.592 376.396 263.457 376.689 264.26C376.981 265.063 377.475 265.777 378.123 266.333C378.593 266.91 379.224 267.334 379.935 267.551C380.647 267.768 381.406 267.769 382.118 267.553C384.078 270.941 386.761 272.445 390.273 270.697C392.537 274.141 395.983 273.557 399.785 272.001C399.826 272.291 399.862 272.55 399.904 272.842C400.243 273.624 400.806 274.288 401.522 274.75C402.238 275.212 403.075 275.451 403.927 275.438C404.778 275.424 405.607 275.158 406.308 274.672C407.008 274.188 407.549 273.506 407.863 272.713C408.433 273.2 409.117 273.535 409.852 273.686C410.586 273.837 411.346 273.8 412.062 273.577C412.778 273.355 413.426 272.954 413.945 272.414C414.464 271.873 414.839 271.209 415.033 270.485C415.664 270.86 416.38 271.072 417.114 271.102C417.847 271.132 418.577 270.98 419.238 270.657C419.898 270.336 420.469 269.855 420.897 269.259C421.327 268.662 421.601 267.968 421.696 267.239C422.478 267.736 423.395 267.972 424.319 267.913C425.242 267.854 426.123 267.504 426.835 266.913C427.547 266.321 428.052 265.519 428.28 264.622C428.508 263.724 428.445 262.777 428.101 261.917L433.28 260.53C434.213 261.688 435.288 262.723 436.482 263.611C436.692 263.746 436.947 263.794 437.192 263.742C457.719 260.858 472.797 258.607 483.886 256.357C455.685 279.687 450.322 285.39 444.531 297.423C438.378 310.165 438.82 321.751 448.98 421.224C449.296 424.414 454.088 424.73 457.348 424.47C449.389 435.389 429.177 442.386 428.794 457.485C428.227 461.194 436.244 460.068 439.865 459.56C455.446 457.371 505.093 443.795 502.801 433.592C502.088 430.392 498.249 422.782 496.534 417.381C500.345 416.119 505.258 413.548 504.029 409.728C500.621 390.179 495.332 336.61 494.939 326.305C508.906 314.279 520.753 304.761 530.608 296.778C531.075 318.622 531.358 340.095 534.048 349.615C537.296 361.235 541.981 366.187 613.921 425.37C615.373 426.552 615.786 427.616 618.469 427.239C620.68 426.792 622.794 425.959 624.716 424.777C622.017 437.002 610.484 450.633 613.299 464.096C612.787 472.879 633.468 456.081 640.187 450.419C648.711 443.282 680.963 414.532 673.04 408.122C670.344 405.828 664.225 400.518 660.478 397.315C663.556 393.649 666.153 387.972 662.821 385.14C658.646 381.471 595.495 333.459 586.959 326.904C589.3 311.43 593.415 277.856 594.692 252.237C596.087 229.802 592.361 207.988 587.168 185.818L596.352 187.365C598.334 201.703 601.3 229.135 602.416 241.286C602.646 243.629 606.149 244.16 608.475 244.296C605.911 247.434 603.522 250.711 601.317 254.111C600.154 256.617 600.329 267.25 602.386 268.512C604.83 269.288 607.401 269.577 609.955 269.362C609.818 270.966 609.55 275.622 609.55 275.622C609.41 276.671 609.631 277.736 610.174 278.643C610.718 279.55 611.553 280.246 612.544 280.616C613.533 280.987 614.619 281.01 615.624 280.683C616.629 280.355 617.493 279.696 618.074 278.813C618.495 279.542 619.102 280.147 619.834 280.564C620.565 280.98 621.394 281.194 622.235 281.183C623.077 281.173 623.9 280.938 624.62 280.503C625.341 280.068 625.932 279.449 626.334 278.708C626.821 279.392 627.482 279.932 628.249 280.271C629.016 280.61 629.86 280.736 630.692 280.636C631.525 280.536 632.316 280.213 632.98 279.702C633.644 279.191 634.159 278.509 634.47 277.73C635.062 278.423 635.85 278.919 636.729 279.152C637.61 279.385 638.54 279.343 639.396 279.033C640.251 278.722 640.992 278.158 641.518 277.416C642.045 276.673 642.333 275.787 642.343 274.875C642.072 271.386 641.584 267.918 640.883 264.489C641.007 264.511 641.136 264.506 641.258 264.472C641.38 264.438 641.494 264.378 641.59 264.295C641.685 264.212 641.761 264.109 641.812 263.992C641.862 263.875 641.886 263.749 641.882 263.623C641.576 256.714 640.851 249.83 639.709 243.008C642.327 242.641 646.678 241.699 645.991 239.156C642.904 192.109 639.985 170.642 630.023 159.57C618.582 146.89 592.131 135.297 562.338 129.254C552.236 125.394 538.923 122.843 513.34 106.641C522.712 79.9824 518.214 74.0156 515.821 72.7018C515.01 72.3306 514.112 72.1996 513.23 72.3236C512.347 72.4476 511.519 72.8215 510.843 73.4014C510.602 72.4805 510.113 71.6436 509.429 70.9818C508.746 70.32 507.893 69.8584 506.966 69.6483C506.038 69.4382 505.071 69.4873 504.169 69.7898C503.268 70.0923 502.467 70.6372 501.854 71.3649C501.436 70.5224 500.812 69.7996 500.041 69.2625C499.269 68.7253 498.375 68.392 497.441 68.2925C496.506 68.1938 495.563 68.3324 494.696 68.6959C493.83 69.0594 493.069 69.6357 492.485 70.3718C489.693 67.3982 483.302 68.1314 482.982 73.1255C481.787 72.3782 480.359 72.0995 478.971 72.3418C477.584 72.5848 476.335 73.3321 475.465 74.4407C474.594 75.5493 474.164 76.9402 474.257 78.3472C474.349 79.7541 474.957 81.0777 475.965 82.0631C478.61 85.1039 482.053 87.3408 485.905 88.5202C486.758 106.547 488.114 113.616 490.23 116.948C491.583 119.068 493.008 120.055 497.469 119.429C498.927 119.212 500.37 118.9 501.788 118.492C500.726 120.837 499.146 122.909 497.167 124.553C485.864 125.745 478.475 128.763 474.412 133.623C468.538 140.618 467.909 150.441 474.43 210.666C473.381 210.945 431.098 222.033 430.418 222.822C429.247 224.327 428.369 226.04 427.831 227.871C420.635 229.905 419.423 230.438 417.292 229.582C411.499 227.295 408.778 223.652 405.363 225.154L402.272 226.611L400.811 225.365C397.935 222.964 393.022 225.767 386.751 226.417C385.917 226.558 385.059 226.411 384.319 225.999C385.298 224.506 385.668 222.695 385.355 220.937C385.132 219.352 385.132 219.352 367.15 208.68C358.915 203.568 349.62 197.945 341.211 192.527C333.139 145.191 332.563 138.045 323.373 128.25C318.528 123.091 313.352 120.98 300.806 115.913C296.803 114.166 295.611 108.031 295.115 104.504C299.31 107.379 301.511 107.796 304.347 107.101C308.611 106.006 309.352 102.371 310.226 77.4031C315.001 76.4352 317.521 74.662 317.745 69.4502C317.909 65.9296 317.881 63.8552 316.033 62.201C314.186 60.5468 310.552 60.4964 302.839 62.1408C291.861 64.475 288.918 65.5815 288.885 70.2716C278.737 72.8853 278.35 74.8203 278.688 95.9892C271.922 104.133 262.389 112.534 258.292 113.638C222.12 123.405 197.074 128.376 178.855 150.733C168.058 163.964 163.668 178.702 160.609 235.027C160.602 236.273 161.032 237.483 161.824 238.445C162.615 239.407 163.719 240.06 164.942 240.292C163.353 245.389 162.323 250.646 161.872 255.967C161.651 260.841 162.203 265.719 163.508 270.421C164.215 271.705 165.397 272.66 166.8 273.081C168.203 273.501 169.716 273.352 171.01 272.666C171.46 273.259 172.027 273.754 172.675 274.12C173.323 274.485 174.039 274.714 174.778 274.793C175.518 274.871 176.266 274.797 176.976 274.576C177.686 274.354 178.343 273.989 178.907 273.504C179.376 274.144 179.976 274.677 180.668 275.066C181.36 275.455 182.127 275.691 182.917 275.758C183.707 275.825 184.503 275.722 185.25 275.455C185.997 275.189 186.678 274.765 187.248 274.212C187.917 275.043 188.835 275.637 189.866 275.909C190.897 276.18 191.988 276.114 192.978 275.721C193.97 275.327 194.808 274.627 195.373 273.721C195.937 272.816 196.197 271.753 196.115 270.69C195.999 267.813 196.008 264.933 196.139 262.059M174.865 356.363L174.91 356.328M174.865 356.363C174.879 356.351 174.895 356.339 174.91 356.328M196.139 262.059C196.353 262.346 198.859 262.922 200.291 262.161C201.329 261.609 201.93 260.552 202.274 259.894M196.139 262.059C196.155 261.72 196.172 261.381 196.191 261.043M174.91 356.328C174.986 356.275 175.07 356.234 175.16 356.208C175.268 356.176 175.382 356.165 175.493 356.177C175.605 356.189 175.714 356.223 175.812 356.276C175.911 356.33 175.998 356.403 176.069 356.491C176.139 356.578 176.193 356.679 176.224 356.787C176.256 356.895 176.267 357.008 176.255 357.12C176.243 357.232 176.21 357.341 176.156 357.44C176.102 357.538 176.029 357.626 175.942 357.697M174.91 356.328L224.446 317.108C224.78 316.844 224.975 316.443 224.977 316.018L225.155 285.059M175.942 357.697C168.899 363.404 158.18 372.037 154.655 375.337C154.802 378.661 155.653 381.915 157.151 384.886C161.503 381.139 189.525 357.24 189.525 357.24C189.61 357.167 189.708 357.112 189.815 357.078C189.921 357.043 190.033 357.03 190.145 357.039C190.256 357.047 190.365 357.078 190.464 357.129C190.564 357.18 190.652 357.25 190.725 357.335C190.798 357.42 190.852 357.519 190.887 357.625C190.922 357.732 190.935 357.844 190.926 357.956C190.917 358.067 190.887 358.176 190.836 358.275C190.785 358.375 190.715 358.463 190.63 358.536C190.63 358.536 162.123 382.735 157.998 386.218C163.682 396.639 175.365 406.116 182.555 406.855C253.271 352.738 261.276 346.136 267.792 336.443C274.307 326.751 274.978 310.884 279.309 255.635C279.326 255.452 279.401 255.279 279.525 255.142C279.649 255.006 279.813 254.914 279.993 254.879C286.404 253.582 287.744 250.919 288.577 252.386C288.683 252.582 288.711 252.811 288.656 253.027C288.6 253.242 288.466 253.429 288.278 253.55C286.064 254.824 283.677 255.771 281.19 256.36C285.594 274.697 292.107 292.461 300.598 309.297C302.165 311.429 303.58 313.666 304.836 315.994C305.839 317.965 297.954 407.732 297.83 409.895C305.25 415.781 328.897 419.85 342.297 414.107C352.416 324.058 352.75 314.706 350.088 302.806C347.759 292.574 340.961 280.793 304.683 224.155C304.384 223.669 304.646 223.896 305.71 218.798C300.706 220.507 295.487 221.507 290.205 221.768C288.938 236.2 288.923 238.677 282.783 239.309C282.671 239.316 282.559 239.301 282.453 239.265C282.347 239.229 282.249 239.173 282.166 239.098C282.082 239.024 282.013 238.934 281.964 238.834C281.915 238.733 281.886 238.624 281.879 238.512C281.868 238.402 281.879 238.292 281.911 238.186C281.944 238.081 281.997 237.983 282.069 237.899C282.14 237.815 282.228 237.746 282.327 237.697C282.425 237.648 282.533 237.619 282.643 237.613C287.038 237.226 287.104 236.755 288.488 221.977C273.307 222.606 258.148 220.252 243.869 215.047C241.357 244.074 238.657 287.479 239.923 315.942C239.991 316.428 240.199 316.266 232.947 322.597C232.776 322.748 232.552 322.825 232.324 322.81C232.096 322.796 231.884 322.692 231.733 322.52C231.582 322.35 231.505 322.125 231.52 321.897C231.534 321.669 231.638 321.457 231.809 321.305C234.372 319.089 236.434 317.234 237.936 315.883M175.942 357.697L226.936 318.117C227.284 317.848 227.484 317.43 227.478 316.991L226.944 281.466M237.936 315.883L238.229 315.619M237.936 315.883C238.036 315.793 238.134 315.705 238.229 315.619M226.944 281.466C226.967 276.46 226.867 265.547 227.494 241.6C227.765 231.333 228.677 219.063 229.75 207.462C233.582 210.316 237.779 212.645 242.227 214.387C239.572 243.335 236.96 286.893 238.229 315.619M226.944 281.466C226.925 285.675 226.821 285.711 226.127 285.808C226.005 285.827 225.881 285.819 225.762 285.785C225.644 285.75 225.534 285.69 225.442 285.609C225.348 285.527 225.274 285.427 225.224 285.315C225.187 285.233 225.164 285.147 225.155 285.059M225.15 284.956C225.635 238.694 225.372 228.139 231.485 174.783C218.232 178.527 215.49 180.594 211.932 184.13C208.375 187.665 207.892 193.376 204.054 238.294C204.14 241.021 201.308 242.211 198.399 242.389C200.37 244.916 203.738 248.238 204.061 250.535C204.353 253.72 203.753 256.923 202.328 259.786M225.15 284.956L225.155 285.059M225.15 284.956C225.149 284.99 225.152 285.025 225.155 285.059M202.328 259.786C202.311 259.82 202.293 259.855 202.274 259.894M202.328 259.786C202.312 259.823 202.294 259.859 202.274 259.894M202.274 259.894C202.178 260.052 202.034 260.176 201.861 260.246C201.65 260.332 201.415 260.33 201.205 260.241C200.996 260.152 200.83 259.984 200.746 259.773C200.664 259.571 200.662 259.347 200.739 259.145M200.751 259.117C202.066 256.544 202.63 253.651 202.379 250.771C202.029 248.28 196.176 243.459 195.517 240.648C195.105 238.471 195.093 236.236 195.481 234.055C186.77 231.957 177.768 231.348 168.856 232.252C168.117 238.955 164.813 244.765 163.842 256.383C163.641 260.961 164.14 265.541 165.324 269.968C165.829 270.846 166.659 271.49 167.635 271.76C168.61 272.031 169.653 271.906 170.537 271.413C169.891 268.661 169.497 265.856 169.359 263.032C169.328 262.809 169.386 262.583 169.522 262.403C169.657 262.223 169.858 262.104 170.081 262.073C170.304 262.042 170.53 262.1 170.71 262.236C170.89 262.372 171.008 262.573 171.04 262.796C171.181 265.444 171.551 268.075 172.145 270.659C172.731 272.952 175.586 274.267 178.411 272.088C177.807 269.428 177.427 266.722 177.274 263.999C177.243 263.776 177.302 263.55 177.437 263.37C177.572 263.19 177.774 263.071 177.997 263.04C178.219 263.008 178.446 263.067 178.626 263.202C178.805 263.338 178.924 263.54 178.956 263.763C178.921 266.523 179.308 269.273 180.102 271.917C180.387 272.499 180.814 272.999 181.342 273.374C181.871 273.749 182.485 273.985 183.128 274.062C183.771 274.139 184.422 274.054 185.024 273.814C185.626 273.575 186.158 273.188 186.572 272.69C185.933 270.03 185.648 267.296 185.726 264.56C185.733 264.332 185.831 264.116 185.998 263.959C186.164 263.803 186.386 263.718 186.614 263.726C186.843 263.733 187.058 263.831 187.215 263.998C187.372 264.165 187.455 264.387 187.448 264.616C187.385 266.978 187.584 269.34 188.043 271.659C188.163 272.517 188.619 273.292 189.311 273.814C190.003 274.335 190.873 274.561 191.73 274.441C192.588 274.32 193.362 273.863 193.883 273.172C194.403 272.48 194.628 271.608 194.508 270.751C194.232 264.753 194.491 258.743 195.28 252.791C195.327 252.57 195.46 252.377 195.65 252.255C195.84 252.132 196.071 252.09 196.292 252.138C196.512 252.185 196.706 252.319 196.828 252.509C196.951 252.699 196.993 252.93 196.945 253.151C196.59 255.772 196.339 258.404 196.191 261.043M200.751 259.117C200.746 259.126 200.743 259.136 200.739 259.145M200.751 259.117C200.751 259.117 200.747 259.126 200.739 259.145M196.191 261.043C196.191 261.043 198.633 261.634 199.699 260.768C200.239 260.33 200.666 259.324 200.739 259.145M635.317 274.84C635.291 275.587 635.562 276.315 636.072 276.862C636.582 277.409 637.287 277.731 638.034 277.757C638.781 277.784 639.508 277.512 640.054 277.002C640.6 276.492 640.922 275.786 640.948 275.038L641.013 275.029C640.921 272.501 640.285 269.852 639.585 264.869C638.979 260.566 634.076 260.858 634.372 265.074C634.608 268.577 634.893 271.102 635.285 274.564M635.317 274.84L635.285 274.564M635.317 274.84C635.306 274.747 635.295 274.656 635.285 274.564M516.631 251.987C527.396 243.446 531.945 240.86 530.254 223.676C558.975 220.927 580.909 222.663 592.761 228.652C593.443 236.504 593.561 244.394 593.113 252.261C591.698 277.834 587.457 311.689 585.084 327.168C585.069 327.32 585.093 327.475 585.153 327.617C585.213 327.758 585.308 327.882 585.429 327.977C594.007 334.592 651.271 378.251 658.682 384.072C650.542 384.556 638.736 394.365 632.889 399.674C627.565 404.48 615.071 416.432 614.123 423.527C540.957 363.361 537.198 359.831 534.588 345.019C539.12 322.922 544.854 301.088 551.765 279.617C564.969 268.49 571.29 261.167 572.007 251.96C572.023 251.734 571.95 251.512 571.802 251.341C571.654 251.169 571.444 251.064 571.219 251.047C570.994 251.031 570.771 251.105 570.6 251.253C570.429 251.4 570.324 251.61 570.308 251.836C569.049 268.675 546.831 279.452 493.362 325.405C493.264 325.494 493.188 325.603 493.137 325.724C493.085 325.844 493.061 325.975 493.065 326.107C493.337 335.066 498.105 385.14 501.709 407.306M516.631 251.987L516.504 252.088M516.631 251.987C516.589 252.02 516.546 252.054 516.504 252.088M501.709 407.306C495.299 403.843 476.483 407.762 469.456 409.307C460.342 326.415 457.614 313.105 462.292 303.473C468.73 290.241 477.905 282.914 516.504 252.088M501.709 407.306C501.746 407.326 501.782 407.346 501.818 407.366L501.721 407.38C501.717 407.356 501.713 407.33 501.709 407.306ZM252.49 117.62C259.456 115.816 260.508 116.031 266.145 111.577C270.821 119.394 276.474 126.582 282.964 132.971C283.055 133.049 283.162 133.107 283.278 133.141C283.394 133.175 283.515 133.184 283.635 133.167C283.754 133.15 283.868 133.108 283.97 133.044C284.072 132.979 284.159 132.895 284.225 132.794C285.571 131.039 286.764 129.171 287.791 127.211C288.884 128.961 290.1 130.632 291.428 132.21C290.816 138.17 290.102 185.388 290.154 193.498C290.189 194.912 299.283 203.335 300.961 204.716C301.051 204.789 301.156 204.843 301.269 204.874C301.381 204.905 301.498 204.912 301.613 204.896C301.728 204.88 301.839 204.84 301.938 204.78C302.037 204.719 302.122 204.639 302.19 204.543C304.778 200.213 306.806 195.571 308.225 190.728C307.724 187.169 297.028 138.749 295.27 131.637C295.835 130.087 296.24 128.482 296.476 126.849C297.149 128.166 297.726 129.529 298.203 130.929C298.28 131.105 298.413 131.252 298.581 131.345C298.749 131.439 298.943 131.476 299.133 131.448C299.324 131.422 299.5 131.334 299.636 131.197C299.772 131.06 299.858 130.883 299.884 130.693C300.115 126.162 299.775 121.621 298.874 117.174C302.142 119.553 315.256 122.329 322.355 129.911C331.12 139.271 331.798 146.204 339.823 193.679C339.841 193.797 339.884 193.909 339.949 194.008C340.014 194.107 340.1 194.19 340.201 194.253C348.472 199.624 357.619 205.136 365.794 210.058C355.125 214.362 343.986 234.075 344.712 244.4C335.187 238.545 324.652 231.842 316.709 226.689C314.646 214.65 313.583 202.461 313.53 190.246C316.447 175.583 319.066 161.389 319.02 158.954C318.713 151.963 317.737 145.018 316.105 138.213C316.038 138.02 315.906 137.856 315.731 137.749C315.558 137.641 315.351 137.599 315.149 137.627C314.946 137.655 314.76 137.753 314.622 137.905C314.484 138.055 314.402 138.249 314.391 138.454C315.991 145.143 316.95 151.968 317.257 158.838C317.324 162.129 312.027 189.401 308.036 207.912L308.032 207.88C291.798 215.506 248.219 210.575 230.826 196.356C231.151 193.275 231.457 190.296 231.762 187.547C238.667 180.919 246.049 174.809 253.849 169.266C254.009 169.152 254.125 168.987 254.177 168.798C254.228 168.609 254.213 168.408 254.133 168.228C254.054 168.049 253.915 167.903 253.74 167.815C253.565 167.726 253.365 167.701 253.174 167.744C219.558 175.767 215.98 177.985 210.702 183.115C207.339 186.392 206.605 190.322 204.011 218.766C196.414 211.618 171.838 210.089 163.883 214.704C166.86 175.846 171.336 163.602 180.38 152.432C196.662 132.452 217.633 126.881 252.338 117.66M252.49 117.62L252.338 117.66M252.49 117.62C252.439 117.634 252.389 117.647 252.338 117.66M430.856 454.574C441.332 445.92 489.922 429.871 500.252 431.871C497.678 424.578 495.02 421.85 492.205 407.694C481.927 408.331 471.764 410.224 461.946 413.332C464.704 432.016 434.787 438.389 430.856 454.574ZM430.856 454.574C430.849 454.602 430.842 454.63 430.836 454.658L430.739 454.671C430.777 454.639 430.817 454.606 430.856 454.574ZM162.571 232.805C165.757 230.609 172.804 229.85 183.032 230.623C188.299 231.038 198.587 232.232 202.535 235.703C202.986 230.228 203.425 225.382 203.771 221.044C198.027 213.008 169.079 211.566 163.616 216.787C163.2 221.564 162.856 226.859 162.54 232.578L162.571 232.805ZM267.334 110.42C271.799 117.944 277.203 124.869 283.416 131.027C286.326 126.686 288.701 122.009 290.49 117.099C283.179 114.995 276.158 111.992 269.586 108.157L267.334 110.42ZM304.091 105.982C307.273 105.171 307.873 100.996 308.655 78.1847C305.843 78.5797 302.117 78.5755 297.713 78.6665C294.516 84.0647 293.151 85.6096 291.798 85.3701C291.12 85.2349 290.665 84.5731 290.505 83.4407C289.832 78.6518 285.633 79.9677 286.614 87.6497C286.626 87.8142 286.593 87.9788 286.516 88.1252C282.392 95.251 277.165 101.677 271.029 107.162C277.415 110.797 284.224 113.63 291.301 115.598C292.757 114.464 293.991 113.072 294.943 111.49C294.884 111.069 294.825 110.649 294.539 110.26C291.615 107.015 289.348 103.232 287.864 99.1218C287.808 98.9495 287.807 98.7639 287.863 98.5916C287.919 98.4193 288.029 98.2695 288.176 98.1637C288.323 98.0587 288.5 98.0033 288.681 98.0054C288.862 98.0075 289.038 98.0685 289.182 98.1777C298.644 105.691 300.876 106.565 304.124 105.746L304.091 105.982ZM295.738 113.391C294.849 114.65 293.786 115.777 292.582 116.739C294.46 119.774 296.562 123.24 298.148 126.548C298.23 121.972 297.423 117.424 295.77 113.156L295.738 113.391ZM501.091 100.409C500.943 100.271 500.847 100.087 500.819 99.8865C500.791 99.6862 500.833 99.4824 500.936 99.3095C504.132 92.2606 499.83 89.5658 498.385 94.0584C497.257 97.5166 493.475 98.0482 492.54 89.9965C491.073 89.8137 489.622 89.5209 488.198 89.1217C489.149 108.786 490.706 114.703 492.95 117.061C495.448 118.888 501.438 111.084 503.267 108.616C503.368 108.47 503.512 108.36 503.679 108.3C503.846 108.241 504.028 108.234 504.198 108.284C504.369 108.333 504.52 108.433 504.63 108.573C504.74 108.711 504.804 108.882 504.812 109.059C505.335 115.354 504.761 120.186 500.376 124.399C515.273 123.68 530.206 124.377 544.972 126.481C563.48 128.697 542.589 129.455 501.091 100.409ZM633.333 276.438C633.426 273.819 632.979 271.11 632.566 265.822C632.192 261.288 627.067 261.414 627.123 265.795C627.17 269.649 627.321 272.366 627.494 275.939C627.547 276.633 627.846 277.286 628.335 277.781C628.824 278.276 629.474 278.581 630.166 278.642C630.859 278.703 631.551 278.516 632.119 278.114C632.688 277.713 633.094 277.121 633.268 276.447L633.333 276.438ZM625.405 277.024C625.627 274.386 625.301 271.363 625.137 266.206C625.033 262.657 621.979 261.8 620.447 263.566C623.434 265.819 622.805 268.612 620.283 268.967L619.507 269.076C619.457 271.294 619.481 272.874 619.474 276.34C619.519 277.041 619.809 277.704 620.293 278.213C620.776 278.723 621.422 279.047 622.12 279.13C622.817 279.213 623.521 279.048 624.109 278.665C624.697 278.282 625.132 277.705 625.34 277.033L625.405 277.024ZM617.321 276.972C617.617 274.37 617.745 271.751 617.702 269.131C616.086 269.359 614.05 269.414 612.01 269.437C611.886 271.136 611.589 275.831 611.589 275.831C611.575 276.519 611.804 277.191 612.234 277.729C612.664 278.267 613.269 278.637 613.944 278.774C614.618 278.911 615.32 278.806 615.925 278.479C616.531 278.151 617.002 277.621 617.257 276.981L617.321 276.972ZM608.237 247.991C606.391 250.187 604.713 252.518 603.218 254.966C602.33 259.008 602.479 263.209 603.649 267.18C605.424 268.316 617.124 267.596 620.13 267.174C620.647 267.101 620.906 267.065 620.875 266.607C620.724 265.539 618.445 262.923 611.351 262.171C611.123 262.168 610.906 262.075 610.747 261.911C610.588 261.748 610.5 261.528 610.503 261.3C610.506 261.072 610.599 260.855 610.762 260.696C610.925 260.537 611.145 260.449 611.373 260.452C620.206 259.739 624.446 256.371 624.779 249.825C624.772 249.707 624.79 249.589 624.831 249.479C624.873 249.368 624.937 249.267 625.02 249.183C625.102 249.099 625.201 249.033 625.311 248.989C625.42 248.945 625.537 248.925 625.656 248.929C625.773 248.933 625.889 248.962 625.995 249.013C626.101 249.065 626.196 249.138 626.272 249.227C626.349 249.317 626.405 249.422 626.439 249.535C626.473 249.648 626.483 249.767 626.468 249.884C626.46 252.747 625.403 255.507 623.498 257.642C621.593 259.776 618.971 261.137 616.13 261.466C617.098 261.746 618.034 262.123 618.926 262.592C619.353 262.043 619.909 261.608 620.544 261.328C621.179 261.046 621.874 260.927 622.567 260.979C623.26 261.033 623.929 261.256 624.515 261.631C625.1 262.005 625.584 262.519 625.923 263.126C626.246 262.481 626.731 261.931 627.33 261.529C627.929 261.127 628.622 260.887 629.341 260.832C630.06 260.778 630.781 260.911 631.434 261.218C632.086 261.524 632.649 261.996 633.066 262.585C633.375 261.865 633.884 261.248 634.531 260.808C635.179 260.367 635.938 260.122 636.72 260.098C637.503 260.075 638.276 260.275 638.949 260.676C639.621 261.078 640.165 261.662 640.518 262.362C639.988 253.983 638.937 245.646 637.371 237.398C628.841 236.6 620.243 236.964 611.811 238.481C611.997 240.243 611.765 242.024 611.132 243.678C610.499 245.332 609.485 246.813 608.172 248L608.237 247.991ZM644.591 237.406C644.246 232.373 643.906 227.604 643.578 223.162C637.136 216.973 607.496 218.334 602.692 223.793C603.326 229.709 603.887 235.107 604.275 239.276C610.475 235.072 637.24 233.655 644.527 237.415L644.591 237.406ZM614.66 460.407C621.965 446.71 659.401 411.226 670.137 407.87C664.597 403.171 655.432 394.956 648.823 389.681C639.74 395.663 631.458 402.781 624.177 410.863C634.372 425.697 614.082 443.396 614.595 460.416L614.66 460.407ZM446.034 298.267C440.136 310.48 440.481 321.847 450.289 417.873C453.755 413.69 462.523 411.106 467.941 409.784C458.818 326.596 455.975 312.939 460.936 302.74C467.975 288.321 478.507 280.473 521.5 246.056C528.196 240.694 529.924 235.634 528.726 223.824L520.354 224.77C518.754 236.84 515.29 241.979 508.626 247.568C504.709 250.89 498.194 253.323 487.424 255.727C457.248 280.491 451.849 286.166 446.034 298.267ZM458.225 259.071C487.282 254.724 501.217 251.611 507.521 246.271C519.684 235.95 520.816 226.882 519.013 170.68C519.019 170.471 519.094 170.27 519.226 170.108C519.359 169.946 519.541 169.833 519.745 169.785C519.955 169.762 520.168 169.816 520.342 169.937C520.516 170.058 520.641 170.238 520.694 170.443C523.969 185.063 526.575 199.611 528.979 213.197C557.239 209.986 579.603 211.264 591.599 216.871C587.932 193.848 582.697 171.102 575.931 148.791C575.869 148.573 575.897 148.338 576.008 148.14C576.12 147.942 576.305 147.796 576.524 147.735C576.742 147.674 576.976 147.702 577.175 147.813C577.372 147.924 577.518 148.11 577.58 148.329C580.237 157.854 582.679 166.783 584.642 175.119C592.435 179.714 600.471 183.883 608.715 187.608C608.901 187.692 609.051 187.84 609.136 188.025C609.222 188.211 609.239 188.422 609.182 188.618C609.126 188.815 609 188.984 608.829 189.095C608.657 189.207 608.452 189.252 608.249 189.224C605.632 188.899 601.995 188.354 598.161 187.804C599.393 196.573 600.912 209.953 602.179 221.785C609.198 216.84 634.642 215.641 643.102 220.952C640.432 186.946 637.162 170.016 628.885 160.852C615.727 146.038 580.997 132.539 544.715 128.167C505.119 123.435 483.948 125.486 476.099 134.838C470.619 141.349 470.096 150.991 476.494 210.343C477.529 210.198 478.365 209.816 479.039 209.688C479.148 209.66 479.261 209.654 479.372 209.669C479.483 209.684 479.59 209.722 479.687 209.778C479.784 209.836 479.869 209.911 479.936 210C480.004 210.09 480.053 210.192 480.081 210.301C480.109 210.409 480.117 210.523 480.101 210.634C480.086 210.745 480.049 210.852 479.991 210.949C479.934 211.046 479.859 211.131 479.77 211.198C479.68 211.266 479.579 211.316 479.47 211.344C476.288 212.154 462.079 215.898 449.852 219.201C443.806 227.078 447.936 252.466 458.225 259.071ZM437.247 262.019L455.672 259.43C446.404 251.658 442.338 229.528 447.27 219.827C440.351 221.723 434.322 223.396 431.8 224.211C425.467 232.162 427.585 254.962 437.256 262.083L437.247 262.019ZM422.065 265.174C422.498 265.661 423.095 265.971 423.742 266.044C424.389 266.118 425.039 265.95 425.57 265.573C426.101 265.196 426.474 264.637 426.618 264.001C426.762 263.366 426.667 262.7 426.351 262.13C425.206 260.081 423.996 258.04 423.209 256.897C421 253.611 417.229 255.625 419.007 259.368C419.641 261.061 421.343 264.022 422.074 265.239L422.065 265.174ZM412.622 261.783C413.449 263.91 414.317 266.098 415.246 268.014C416.67 271.113 421.282 268.749 419.715 265.109C419.132 263.772 417.919 261.237 417.004 259.418C415.225 255.907 411.093 257.939 412.631 261.847L412.622 261.783ZM406.394 264.373C406.984 266.511 407.686 268.614 408.5 270.677C408.785 271.311 409.311 271.805 409.96 272.051C410.61 272.297 411.331 272.274 411.964 271.989C412.597 271.703 413.09 271.177 413.336 270.526C413.581 269.876 413.559 269.155 413.273 268.521C412.593 266.736 411.629 264.331 410.779 262.273C409.185 258.669 405.257 260.508 406.384 264.54L406.394 264.373ZM400.07 266.285C400.416 268.327 400.91 270.342 401.543 272.314C402.521 275.048 406.919 273.506 406.352 271.11C406.197 270.01 404.977 266.256 404.357 264.429C403.128 260.84 399.403 262.485 400.079 266.35L400.07 266.285ZM377.027 260.185C379.346 257.064 382.242 254.417 385.556 252.387C385.74 252.274 385.959 252.234 386.17 252.277C386.381 252.319 386.569 252.44 386.693 252.616C386.819 252.791 386.873 253.008 386.845 253.221C386.817 253.435 386.708 253.63 386.541 253.767C384.836 254.996 378.183 259.495 377.858 262.344C377.842 262.862 377.948 263.376 378.169 263.844C378.389 264.312 378.717 264.721 379.127 265.037C380.476 266.432 382.124 266.893 389.996 259.584C390.163 259.429 390.384 259.346 390.611 259.355C390.837 259.363 391.051 259.462 391.206 259.628C391.36 259.795 391.443 260.015 391.434 260.243C391.426 260.47 391.328 260.684 391.162 260.839C388.861 263.141 386.288 265.153 383.5 266.831C383.8 267.523 384.253 268.136 384.825 268.628C385.397 269.119 386.071 269.475 386.799 269.667C389.633 270.127 392.923 266.332 394.643 264.737C394.815 264.587 395.039 264.51 395.267 264.525C395.495 264.539 395.707 264.644 395.857 264.815C396.009 264.986 396.085 265.21 396.071 265.438C396.056 265.666 395.953 265.879 395.781 266.03C394.444 267.406 393.031 268.706 391.549 269.924C393.339 272.576 396.056 271.732 399.11 270.478C398.928 269.184 398.552 267.917 398.338 266.628C397.448 261.704 401.885 259.266 404.575 261.758C404.694 261.124 404.972 260.531 405.384 260.034C405.796 259.538 406.327 259.155 406.928 258.922C407.529 258.689 408.18 258.613 408.819 258.702C409.457 258.791 410.062 259.042 410.577 259.43C410.663 258.751 410.925 258.107 411.337 257.56C411.749 257.014 412.297 256.586 412.925 256.317C413.554 256.048 414.243 255.95 414.922 256.03C415.601 256.11 416.247 256.367 416.797 256.775C417.441 253.384 421.88 252.134 424.504 256.022C425.208 257.045 426.234 258.715 427.209 260.492L432.068 259.182C426.89 250.444 425.219 240.065 427.392 230.143C425.135 230.855 422.841 231.442 420.519 231.901C419.269 232.132 417.977 231.992 416.804 231.499C411.36 229.36 408.492 226.068 406.287 227.037L403.81 228.177C406.883 231.045 409.988 234.37 414 238.756C418.012 243.141 410.5 248.091 399.232 238.521C396.066 240.543 392.475 241.804 388.74 242.206C379.512 248.782 375.014 253.604 375.063 256.996C375.133 257.65 375.346 258.281 375.687 258.843C376.028 259.405 376.489 259.886 377.036 260.25L377.027 260.185ZM373.696 254.779C374.761 251.33 378.637 247.486 385.722 242.069C384.499 242.023 383.287 241.828 382.113 241.488C381.926 241.404 381.776 241.255 381.69 241.07C381.604 240.884 381.588 240.674 381.645 240.477C381.701 240.281 381.827 240.112 381.998 240C382.169 239.889 382.375 239.843 382.578 239.872C385.376 240.469 388.267 240.477 391.068 239.896C393.869 239.315 396.519 238.158 398.849 236.497C399.009 236.385 399.202 236.333 399.396 236.347C399.59 236.363 399.773 236.443 399.915 236.578C408.716 244.316 415.271 242.405 412.775 239.654C408.78 235.071 404.484 230.758 399.917 226.745C398.719 225.725 396.327 226.292 393.361 227.006C384.05 229.238 385.404 228.553 377.34 223.482C370.848 230.244 365.624 238.12 361.918 246.734C364.877 248.792 370.441 252.498 373.705 254.845L373.696 254.779ZM346.534 245.398C351.029 248.065 355.298 250.765 358.812 252.779C358.394 245.117 373.035 221.942 380.816 219.133C377.524 217.055 372.909 214.239 367.653 211.084C356.964 213.84 344.527 236.045 346.529 245.366L346.534 245.398Z" stroke="#0F0F0F"/>
</g>
</g>
<defs>
<clipPath id="clip0_440_620">
<rect width="683" height="423" fill="white"/>
</clipPath>
</defs>
</svg>
