<svg width="668" height="480" viewBox="0 0 668 480" fill="none" xmlns="http://www.w3.org/2000/svg">
<g clip-path="url(#clip0_848_1139)">
<path fill-rule="evenodd" clip-rule="evenodd" d="M0 362.52C0 362.52 56.0946 121.097 96.898 54.9731C137.701 -11.1514 204.373 -19.2332 245.255 39.5046C286.138 98.242 327 230.371 367.883 252.452C408.765 274.533 449.628 186.387 490.51 164.366C531.393 142.345 572.255 186.387 592.697 208.409L613.138 230.371V362.52H0Z" fill="url(#paint0_linear_848_1139)"/>
</g>
<g clip-path="url(#clip1_848_1139)">
<path fill-rule="evenodd" clip-rule="evenodd" d="M211.828 70.0415V99.6656H176.473V100.489H211.828V136.696H176.473V137.519H211.828V172.08H176.473V172.903H211.828V204.174H176.473V204.996H211.828V241.204H176.473V242.027H211.828V276.588H176.473V277.411H211.828V313.619H176.473V314.442H211.828V350.649H176.473V351.472H211.828V392.617H212.651V351.472H248.007V392.617H248.829V351.472H285.007V392.617H285.829V351.472H320.363V392.617H321.185V351.472H352.43V392.617H353.252V351.472H389.431V392.617H390.253V351.472H424.787V392.617H425.609V351.472H459.321V392.617H460.143V351.472H491.387V350.649H460.143V314.442H491.387V313.619H460.143V277.411H491.387V276.588H460.143V242.027H491.387V241.204H460.143V204.996H491.387V204.174H460.143V172.903H491.387V172.08H460.143V137.519H491.387V136.696H460.143V100.489H491.387V99.6656H460.143V70.0415H459.321V99.6656H425.609V70.0415H424.787V99.6656H390.253V70.0415H389.431V99.6656H353.252V70.0415H352.43V99.6656H321.185V70.0415H320.363V99.6656H285.829V70.0415H285.007V99.6656H248.829V70.0415H248.007V99.6656H212.651V70.0415H211.828ZM459.32 350.648V314.441H425.609V350.648H459.32ZM424.787 350.648V314.441H390.252V350.648H424.787ZM389.43 350.648V314.441H353.252V350.648H389.43ZM352.43 350.648V314.441H321.185V350.648H352.43ZM320.363 350.648V314.441H285.829V350.648H320.363ZM285.007 350.648V314.441H248.829V350.648H285.007ZM248.007 350.648V314.441H212.651V350.648H248.007ZM248.007 313.618H212.651V277.411H248.007V313.618ZM285.007 313.618H248.829V277.411H285.007V313.618ZM320.363 313.618H285.829V277.411H320.363V313.618ZM352.43 313.618H321.185V277.411H352.43V313.618ZM389.43 313.618H353.252V277.411H389.43V313.618ZM424.787 313.618H390.252V277.411H424.787V313.618ZM459.32 313.618H425.609V277.411H459.32V313.618ZM459.32 276.588V242.026H425.609V276.588H459.32ZM424.787 276.588V242.026H390.252V276.588H424.787ZM389.43 276.588V242.026H353.252V276.588H389.43ZM352.43 276.588V242.026H321.185V276.588H352.43ZM320.363 276.588V242.026H285.829V276.588H320.363ZM285.007 276.588V242.026H248.829V276.588H285.007ZM248.007 276.588V242.026H212.651V276.588H248.007ZM212.651 204.173V172.903H248.007V204.173H212.651ZM212.651 172.08H248.007V137.519H212.651V172.08ZM248.829 204.173V172.903H285.007V204.173H248.829ZM248.829 172.08H285.007V137.519H248.829V172.08ZM285.829 204.173V172.903H320.363V204.173H285.829ZM285.829 172.08H320.363V137.519H285.829V172.08ZM321.185 204.173V172.903H352.43V204.173H321.185ZM321.185 172.08H352.43V137.519H321.185V172.08ZM353.252 204.173V172.903H389.43V204.173H353.252ZM353.252 172.08H389.43V137.519H353.252V172.08ZM390.252 204.173V172.903H424.787V204.173H390.252ZM390.252 172.08H424.787V137.519H390.252V172.08ZM425.609 204.173V172.903H459.32V204.173H425.609ZM425.609 172.08H459.32V137.519H425.609V172.08ZM459.32 241.203V204.996H425.609V241.203H459.32ZM424.787 241.203V204.996H390.253V241.203H424.787ZM389.43 241.203V204.996H353.252V241.203H389.43ZM352.43 241.203V204.996H321.185V241.203H352.43ZM320.363 241.203V204.996H285.83V241.203H320.363ZM285.007 241.203V204.996H248.829V241.203H285.007ZM248.007 241.203V204.996H212.651V241.203H248.007ZM212.651 136.696H248.007V100.489H212.651V136.696ZM248.829 136.696H285.008V100.489H248.829V136.696ZM285.83 136.696H320.363V100.489H285.83V136.696ZM321.186 136.696H352.43V100.489H321.186V136.696ZM353.252 136.696H389.431V100.489H353.252V136.696ZM390.253 136.696H424.787V100.489H390.253V136.696ZM425.609 136.696H459.321V100.489H425.609V136.696Z" fill="white"/>
</g>
<g clip-path="url(#clip2_848_1139)">
<path d="M468.13 2.73584H248.977V319.017H468.13V2.73584Z" fill="url(#paint1_linear_848_1139)"/>
<path d="M468.13 2.73584H248.977V28.956H468.13V2.73584Z" fill="#111111"/>
<path d="M268.675 21.5817C271.395 21.5817 273.6 19.197 273.6 16.2557C273.6 13.3144 271.395 10.9297 268.675 10.9297C265.955 10.9297 263.75 13.3144 263.75 16.2557C263.75 19.197 265.955 21.5817 268.675 21.5817ZM281.807 21.5817C284.528 21.5817 286.732 19.197 286.732 16.2557C286.732 13.3144 284.528 10.9297 281.807 10.9297C279.087 10.9297 276.883 13.3144 276.883 16.2557C276.883 19.197 279.087 21.5817 281.807 21.5817ZM296.582 21.5817C299.302 21.5817 301.507 19.197 301.507 16.2557C301.507 13.3144 299.302 10.9297 296.582 10.9297C293.862 10.9297 291.657 13.3144 291.657 16.2557C291.657 19.197 293.862 21.5817 296.582 21.5817Z" fill="white"/>
</g>
<g clip-path="url(#clip3_848_1139)">
<path d="M499.868 259.099H347.473V422.165H499.868V259.099Z" fill="url(#paint2_linear_848_1139)"/>
</g>
<g clip-path="url(#clip4_848_1139)">
<path d="M369.908 122.384H90.2891V287.827H369.908V122.384Z" fill="url(#paint3_linear_848_1139)"/>
<path d="M369.908 91.9297H90.2891V124.031H369.908V91.9297Z" fill="#111111"/>
<path d="M112.559 114.154C115.748 114.154 118.333 111.39 118.333 107.98C118.333 104.571 115.748 101.807 112.559 101.807C109.37 101.807 106.785 104.571 106.785 107.98C106.785 111.39 109.37 114.154 112.559 114.154ZM129.468 114.154C132.885 114.154 135.655 111.39 135.655 107.98C135.655 104.571 132.885 101.807 129.468 101.807C126.052 101.807 123.282 104.571 123.282 107.98C123.282 111.39 126.052 114.154 129.468 114.154ZM146.377 114.154C149.566 114.154 152.151 111.39 152.151 107.98C152.151 104.571 149.566 101.807 146.377 101.807C143.188 101.807 140.603 104.571 140.603 107.98C140.603 111.39 143.188 114.154 146.377 114.154Z" fill="white"/>
</g>
<g clip-path="url(#clip5_848_1139)">
<path d="M205.59 409.869L261.481 389.714L281.603 445.625L225.533 465.715L205.59 409.869Z" fill="url(#paint4_linear_848_1139)"/>
<path d="M281.565 445.667L225.56 465.708L216.227 478.845L272.232 458.804L281.565 445.667Z" fill="url(#paint5_linear_848_1139)"/>
<path d="M225.684 465.829L205.627 409.869L196.332 423.113L216.39 479.074L225.684 465.829Z" fill="url(#paint6_linear_848_1139)"/>
<path d="M196.309 423.078L252.314 403.037L272.334 458.89L216.366 479.039L196.309 423.078Z" fill="url(#paint7_linear_848_1139)" fill-opacity="0.8"/>
<path d="M261.751 389.606L252.52 403.041L272.464 458.612L281.809 445.517L261.751 389.606Z" fill="url(#paint8_linear_848_1139)"/>
<path d="M261.471 389.707L205.427 409.641L196.172 422.991L252.176 402.951L261.471 389.707Z" fill="url(#paint9_linear_848_1139)"/>
</g>
<g clip-path="url(#clip6_848_1139)">
<path d="M398.276 313.573C392.542 313.573 388.75 316.706 389.162 322.274L389.367 326.769C389.672 329.719 388.969 332.684 387.372 335.196C385.774 337.707 383.372 339.62 380.546 340.632C383.374 341.649 385.777 343.568 387.375 346.084C388.971 348.592 389.673 351.566 389.367 354.523L389.162 359.019C388.956 364.5 392.542 367.719 398.276 367.719H400.275V375.926H398.276C385.78 375.926 379.253 369.083 379.84 357.946L380.047 353.422C380.223 347.969 376.666 344.721 370.727 344.721V336.514C376.607 336.514 380.223 333.382 380.047 327.813L379.841 323.318C379.253 312.385 385.722 305.337 398.276 305.337H400.275V313.545L398.276 313.573ZM453.136 367.403C458.875 367.403 462.672 364.272 462.26 358.707L462.054 354.213C461.743 351.256 462.444 348.281 464.042 345.773C465.642 343.257 468.05 341.34 470.884 340.327C468.05 339.315 465.642 337.398 464.042 334.882C462.442 332.365 461.743 329.394 462.054 326.442L462.26 321.948C462.466 316.498 458.875 313.251 453.136 313.251H451.165V305.337H453.136C465.645 305.337 472.179 312.179 471.59 323.311L471.385 327.804C471.207 333.283 474.769 336.501 480.714 336.501V344.734C474.828 344.734 471.207 347.865 471.385 353.431L471.59 357.924C472.179 368.882 465.704 375.926 453.136 375.926H451.165V367.694L453.136 367.403V367.403ZM408.483 348.019C412.563 348.019 415.871 344.711 415.871 340.632C415.871 336.552 412.563 333.244 408.483 333.244C404.403 333.244 401.096 336.551 401.096 340.632C401.096 344.712 404.403 348.019 408.483 348.019ZM427.362 348.019C431.442 348.019 434.749 344.711 434.749 340.632C434.749 336.552 431.442 333.244 427.362 333.244C423.282 333.244 419.975 336.551 419.975 340.632C419.975 344.712 423.282 348.019 427.362 348.019Z" fill="white"/>
<path d="M447.059 348.019C451.139 348.019 454.446 344.711 454.446 340.632C454.446 336.552 451.139 333.245 447.059 333.245C442.979 333.245 439.672 336.552 439.672 340.632C439.672 344.712 442.98 348.019 447.059 348.019Z" fill="white"/>
</g>
<g clip-path="url(#clip7_848_1139)">
<path d="M106.373 170.192C106.226 170.121 106.102 170.011 106.016 169.873C105.929 169.735 105.883 169.576 105.883 169.413V165.916C105.883 165.583 106.074 165.28 106.375 165.137L131.256 153.26C131.831 152.986 132.495 153.404 132.495 154.039V157.126C132.495 157.463 132.298 157.77 131.99 157.911L112.338 166.917C111.666 167.225 111.666 168.178 112.338 168.487L131.991 177.492C132.141 177.561 132.269 177.672 132.358 177.811C132.447 177.95 132.495 178.112 132.495 178.277V181.361C132.495 181.997 131.829 182.415 131.255 182.139L106.373 170.192ZM135.784 190.426C135.197 190.426 134.78 189.854 134.96 189.297L148.633 146.975C148.689 146.801 148.799 146.649 148.947 146.541C149.095 146.434 149.273 146.376 149.456 146.376H152.316C152.903 146.376 153.32 146.947 153.14 147.505L139.467 189.827C139.411 190.001 139.301 190.152 139.153 190.26C139.005 190.368 138.827 190.426 138.644 190.426H135.784ZM156.137 182.158C155.563 182.426 154.905 182.008 154.905 181.376V178.283C154.905 177.942 155.105 177.634 155.416 177.495L175.538 168.49C176.22 168.185 176.22 167.219 175.538 166.913L155.416 157.908C155.264 157.84 155.134 157.73 155.044 157.59C154.953 157.45 154.905 157.287 154.905 157.12V154.024C154.905 153.392 155.562 152.974 156.135 153.241L181.717 165.139C181.866 165.208 181.993 165.319 182.081 165.458C182.17 165.596 182.217 165.757 182.217 165.922V169.407C182.217 169.572 182.17 169.732 182.082 169.871C181.994 170.009 181.868 170.12 181.719 170.19L156.137 182.158Z" fill="white"/>
</g>
<g clip-path="url(#clip8_848_1139)">
<path d="M651.85 34.2683L556.854 0.184082L522.652 94.7357L617.953 128.711L651.85 34.2683Z" fill="url(#paint10_linear_848_1139)"/>
<path d="M522.711 94.8071L617.901 128.698L633.765 150.913L538.575 117.022L522.711 94.8071Z" fill="url(#paint11_linear_848_1139)"/>
<path d="M617.691 128.902L651.783 34.2681L667.582 56.6645L633.49 151.301L617.691 128.902Z" fill="url(#paint12_linear_848_1139)"/>
<path d="M667.625 56.6056L572.435 22.7139L538.41 117.169L633.536 151.241L667.625 56.6056Z" fill="url(#paint13_linear_848_1139)" fill-opacity="0.8"/>
<path d="M556.393 0L572.084 22.7188L538.184 116.697L522.301 94.5517L556.393 0Z" fill="url(#paint14_linear_848_1139)"/>
<path d="M556.871 0.170898L652.126 33.8814L667.857 56.4617L572.669 22.5699L556.871 0.170898Z" fill="url(#paint15_linear_848_1139)"/>
</g>
<g clip-path="url(#clip9_848_1139)">
<path d="M396.254 115.034C396.254 121.371 393.699 124.762 389.251 124.762C385.259 124.762 382.563 121.372 382.493 115.256C382.424 109.14 385.435 105.75 389.496 105.75C393.558 105.75 396.254 109.14 396.254 115.034ZM385.19 115.319C385.19 120.104 386.835 122.829 389.321 122.829C391.807 122.829 393.488 119.85 393.488 115.129C393.488 110.408 392.228 107.619 389.356 107.619C386.484 107.619 385.19 110.281 385.19 115.319ZM402.215 108.135L398.873 109.931L398.371 107.971L402.617 105.75H404.722V124.762H402.182L402.215 108.135ZM423.778 115.034C423.778 121.371 421.615 124.762 417.853 124.762C414.475 124.762 412.194 121.371 412.134 115.256C412.075 109.14 414.653 105.75 418.059 105.75C421.466 105.75 423.778 109.14 423.778 115.034ZM414.416 115.319C414.416 120.104 415.807 122.829 417.941 122.829C420.074 122.829 421.466 119.85 421.466 115.129C421.466 110.408 420.37 107.619 417.941 107.619C415.512 107.619 414.416 110.281 414.416 115.319ZM430.718 108.135L427.445 109.931L426.953 107.971L431.111 105.75H433.305V124.762H430.817L430.718 108.135ZM452.36 115.034C452.36 121.371 449.962 124.762 445.879 124.762C442.217 124.762 439.722 121.371 439.658 115.256C439.593 109.14 442.379 105.75 446.138 105.75C449.897 105.75 452.36 109.14 452.36 115.034ZM442.121 115.319C442.121 120.104 443.61 122.829 445.944 122.829C448.277 122.829 449.799 119.85 449.799 115.129C449.799 110.408 448.601 107.619 445.976 107.619C443.352 107.619 441.991 110.281 441.991 115.319L442.121 115.319ZM460.359 108.135L457.085 109.931L456.594 107.971L460.752 105.75H462.946V124.762H460.458L460.359 108.135Z" fill="white"/>
<path d="M421.191 81.7287L417.916 83.5253L417.426 81.5651L421.584 79.3442H423.778V98.3561H421.29L421.191 81.7287ZM436.442 81.7287L433.714 83.5253L433.305 81.5651L436.77 79.3442H438.598V98.3561H436.442V81.7287ZM456.594 88.6286C456.594 94.9659 454.628 98.3565 451.208 98.3565C448.137 98.3565 446.062 94.9659 446.009 88.8506C445.955 82.7349 448.298 79.3442 451.396 79.3442C454.493 79.3442 456.594 82.5763 456.594 88.6286ZM448.083 88.9136C448.083 93.6983 449.349 96.4234 451.288 96.4234C453.226 96.4234 454.52 93.2865 454.52 88.6286C454.52 83.9708 453.524 81.1188 451.316 81.1188C449.108 81.1188 448.083 83.7171 448.083 88.6286V88.9136ZM465.652 81.7287L462.378 83.5253L461.887 81.5651L466.045 79.3442H468.239V98.3561H465.751L465.652 81.7287ZM487.294 88.6286C487.294 94.9659 484.696 98.3565 480.273 98.3565C476.306 98.3565 473.603 94.9659 473.533 88.8506C473.463 82.7349 476.482 79.3442 480.553 79.3442C484.625 79.3442 487.294 82.5763 487.294 88.6286ZM476.201 88.9136C476.201 93.6983 477.815 96.4234 480.343 96.4234C482.871 96.4234 484.521 93.445 484.521 88.7237C484.521 84.0025 483.222 81.214 480.378 81.214C477.534 81.214 476.096 83.7171 476.096 88.6286L476.201 88.9136ZM493.617 81.7287L490.904 83.5253L490.469 81.5651L493.943 79.3442H495.763V98.3561H493.699L493.617 81.7287Z" fill="#DADADA"/>
</g>
<g clip-path="url(#clip10_848_1139)">
<path d="M280.02 63.3998C280.02 67.3702 278.421 69.4945 275.639 69.4945C273.141 69.4945 271.455 67.3704 271.411 63.5389C271.367 59.7074 273.251 57.5834 275.792 57.5834C278.333 57.5834 280.02 59.7074 280.02 63.3998ZM273.098 63.5786C273.098 66.5763 274.127 68.2836 275.682 68.2836C277.237 68.2836 278.289 66.4174 278.289 63.4594C278.289 60.5015 277.501 58.7545 275.704 58.7545C273.907 58.7545 273.098 60.4223 273.098 63.5786ZM283.749 59.0775L281.658 60.2031L281.344 58.975L284 57.5834H285.317V69.4945H283.728L283.749 59.0775ZM297.239 63.3998C297.239 67.3702 295.886 69.4945 293.532 69.4945C291.419 69.4945 289.991 67.3702 289.954 63.5389C289.917 59.7074 291.53 57.5834 293.661 57.5834C295.792 57.5834 297.239 59.7074 297.239 63.3998ZM291.382 63.5786C291.382 66.5763 292.252 68.2836 293.587 68.2836C294.922 68.2836 295.792 66.4174 295.792 63.4594C295.792 60.5015 295.107 58.7545 293.587 58.7545C292.067 58.7545 291.382 60.4223 291.382 63.5786ZM301.58 59.0775L299.533 60.2031L299.225 58.975L301.826 57.5834H303.199V69.4945H301.642L301.58 59.0775ZM315.12 63.3998C315.12 67.3702 313.62 69.4945 311.065 69.4945C308.774 69.4945 307.213 67.3702 307.173 63.5389C307.133 59.7074 308.876 57.5834 311.227 57.5834C313.579 57.5834 315.12 59.7074 315.12 63.3998ZM308.714 63.5786C308.714 66.5763 309.646 68.2836 311.106 68.2836C312.566 68.2836 313.518 66.4174 313.518 63.4594C313.518 60.5015 312.768 58.7545 311.126 58.7545C309.484 58.7545 308.633 60.4221 308.633 63.5784L308.714 63.5786ZM320.124 59.0775L318.076 60.2031L317.769 58.975L320.37 57.5834H321.743V69.4945H320.186L320.124 59.0775Z" fill="white"/>
<path d="M295.621 42.5339L293.573 43.6595L293.266 42.4314L295.867 41.04H297.239V52.9511H295.683L295.621 42.5339ZM305.162 42.5339L303.456 43.6595L303.2 42.4314L305.367 41.04H306.511V52.9511H305.162V42.5339ZM317.77 46.8568C317.77 50.8271 316.54 52.9514 314.4 52.9514C312.479 52.9514 311.181 50.8271 311.147 46.9958C311.114 43.1643 312.58 41.04 314.517 41.04C316.455 41.04 317.77 43.065 317.77 46.8568ZM312.445 47.0353C312.445 50.0329 313.237 51.7402 314.45 51.7402C315.662 51.7402 316.472 49.7749 316.472 46.8568C316.472 43.9386 315.849 42.1518 314.467 42.1518C313.086 42.1518 312.445 43.7797 312.445 46.8568V47.0353ZM323.436 42.5339L321.388 43.6595L321.081 42.4314L323.682 41.04H325.055V52.9511H323.498L323.436 42.5339ZM336.975 46.8568C336.975 50.8271 335.35 52.9514 332.583 52.9514C330.101 52.9514 328.41 50.8271 328.366 46.9958C328.323 43.1643 330.211 41.04 332.759 41.04C335.306 41.04 336.975 43.065 336.975 46.8568ZM330.036 47.0353C330.036 50.0329 331.045 51.7402 332.627 51.7402C334.208 51.7402 335.24 49.8743 335.24 46.9164C335.24 43.9585 334.428 42.2114 332.649 42.2114C330.869 42.2114 329.97 43.7797 329.97 46.8568L330.036 47.0353ZM340.931 42.5339L339.234 43.6595L338.962 42.4314L341.135 41.04H342.273V52.9511H340.982L340.931 42.5339Z" fill="#DADADA"/>
</g>
<g clip-path="url(#clip11_848_1139)">
<path d="M232.012 162.792H346.103V151.301H232.012V162.792ZM298.497 189.058H346.103V177.566H298.497V189.058Z" fill="#111111"/>
<path d="M321.48 209.578H346.104V198.086H321.48V209.578Z" fill="white"/>
<path d="M255.816 209.578H315.735V198.086H255.816V209.578Z" fill="#E2F570"/>
<path d="M293.573 230.098H346.104V218.606H293.573V230.098ZM229.551 230.098H288.648V218.606H229.551V230.098Z" fill="#111111"/>
<path d="M198.359 230.098H222.162V218.606H198.359V230.098Z" fill="white"/>
<path d="M198.359 209.578H250.891V198.086H198.359V209.578Z" fill="#111111"/>
</g>
<defs>
<linearGradient id="paint0_linear_848_1139" x1="0" y1="181.26" x2="613.138" y2="181.26" gradientUnits="userSpaceOnUse">
<stop stop-color="#4F82E3" stop-opacity="0"/>
<stop offset="0.49" stop-color="#0577FF"/>
<stop offset="1" stop-color="#4F82E3" stop-opacity="0"/>
</linearGradient>
<linearGradient id="paint1_linear_848_1139" x1="454.543" y1="326.848" x2="263.061" y2="-5.38172" gradientUnits="userSpaceOnUse">
<stop stop-color="#E5E5E4"/>
<stop offset="0.41" stop-color="#E5E5E4" stop-opacity="0.69"/>
<stop offset="0.81" stop-color="#E5E5E4" stop-opacity="0.41"/>
<stop offset="1" stop-color="#E5E5E4" stop-opacity="0.3"/>
</linearGradient>
<linearGradient id="paint2_linear_848_1139" x1="477.902" y1="434.776" x2="369.713" y2="246.331" gradientUnits="userSpaceOnUse">
<stop stop-color="white"/>
<stop offset="0.521" stop-color="#0577FF"/>
<stop offset="1" stop-color="#0577FF"/>
</linearGradient>
<linearGradient id="paint3_linear_848_1139" x1="266.896" y1="320.529" x2="193.583" y2="89.5929" gradientUnits="userSpaceOnUse">
<stop stop-color="white"/>
<stop offset="0.521" stop-color="#0577FF"/>
<stop offset="1" stop-color="#0577FF"/>
</linearGradient>
<linearGradient id="paint4_linear_848_1139" x1="255.603" y1="393.508" x2="230.374" y2="465.57" gradientUnits="userSpaceOnUse">
<stop stop-color="#0577FF"/>
<stop offset="1" stop-color="white"/>
</linearGradient>
<linearGradient id="paint5_linear_848_1139" x1="281.331" y1="445.706" x2="216.267" y2="478.958" gradientUnits="userSpaceOnUse">
<stop stop-color="#0577FF"/>
<stop offset="1" stop-color="white"/>
</linearGradient>
<linearGradient id="paint6_linear_848_1139" x1="209.927" y1="435.396" x2="215.144" y2="479.247" gradientUnits="userSpaceOnUse">
<stop stop-color="#0577FF"/>
<stop offset="1" stop-color="white"/>
</linearGradient>
<linearGradient id="paint7_linear_848_1139" x1="213.722" y1="429.424" x2="270.909" y2="461.689" gradientUnits="userSpaceOnUse">
<stop stop-color="#0577FF"/>
<stop offset="1" stop-color="#FBFDFF"/>
</linearGradient>
<linearGradient id="paint8_linear_848_1139" x1="272.662" y1="459.582" x2="261.888" y2="390.289" gradientUnits="userSpaceOnUse">
<stop stop-color="#0577FF"/>
<stop offset="1" stop-color="#FBFDFF" stop-opacity="0.99"/>
</linearGradient>
<linearGradient id="paint9_linear_848_1139" x1="261.438" y1="389.643" x2="196.175" y2="422.998" gradientUnits="userSpaceOnUse">
<stop stop-color="#0577FF"/>
<stop offset="1" stop-color="#FBFDFF"/>
</linearGradient>
<linearGradient id="paint10_linear_848_1139" x1="566.845" y1="6.60052" x2="609.342" y2="128.598" gradientUnits="userSpaceOnUse">
<stop stop-color="#0577FF"/>
<stop offset="1" stop-color="white"/>
</linearGradient>
<linearGradient id="paint11_linear_848_1139" x1="523.107" y1="94.873" x2="633.464" y2="151.556" gradientUnits="userSpaceOnUse">
<stop stop-color="#0577FF"/>
<stop offset="1" stop-color="white"/>
</linearGradient>
<linearGradient id="paint12_linear_848_1139" x1="644.475" y1="77.4386" x2="635.694" y2="151.605" gradientUnits="userSpaceOnUse">
<stop stop-color="#0577FF"/>
<stop offset="1" stop-color="white"/>
</linearGradient>
<linearGradient id="paint13_linear_848_1139" x1="638.03" y1="67.3365" x2="541.068" y2="122.32" gradientUnits="userSpaceOnUse">
<stop stop-color="#0577FF"/>
<stop offset="1" stop-color="#FBFDFF"/>
</linearGradient>
<linearGradient id="paint14_linear_848_1139" x1="537.846" y1="118.339" x2="555.982" y2="1.12746" gradientUnits="userSpaceOnUse">
<stop stop-color="#0577FF"/>
<stop offset="1" stop-color="#FBFDFF" stop-opacity="0.99"/>
</linearGradient>
<linearGradient id="paint15_linear_848_1139" x1="556.926" y1="0.0639997" x2="667.622" y2="56.9217" gradientUnits="userSpaceOnUse">
<stop stop-color="#0577FF"/>
<stop offset="1" stop-color="#FBFDFF"/>
</linearGradient>
<clipPath id="clip0_848_1139">
<rect width="613.138" height="362.52" fill="white"/>
</clipPath>
<clipPath id="clip1_848_1139">
<rect width="314.914" height="322.574" fill="white" transform="translate(176.473 70.0415)"/>
</clipPath>
<clipPath id="clip2_848_1139">
<rect width="219.154" height="316.282" fill="white" transform="translate(248.977 2.73584)"/>
</clipPath>
<clipPath id="clip3_848_1139">
<rect width="152.395" height="163.066" fill="white" transform="translate(347.473 259.099)"/>
</clipPath>
<clipPath id="clip4_848_1139">
<rect width="279.619" height="195.898" fill="white" transform="translate(90.2891 91.9297)"/>
</clipPath>
<clipPath id="clip5_848_1139">
<rect width="85.6368" height="89.4672" fill="white" transform="translate(196.172 389.606)"/>
</clipPath>
<clipPath id="clip6_848_1139">
<rect width="109.987" height="70.5888" fill="white" transform="translate(370.727 305.337)"/>
</clipPath>
<clipPath id="clip7_848_1139">
<rect width="76.3344" height="44.0496" fill="white" transform="translate(105.883 146.376)"/>
</clipPath>
<clipPath id="clip8_848_1139">
<rect width="145.555" height="151.301" fill="white" transform="translate(522.301)"/>
</clipPath>
<clipPath id="clip9_848_1139">
<rect width="113.27" height="45.4176" fill="white" transform="translate(382.492 79.3442)"/>
</clipPath>
<clipPath id="clip10_848_1139">
<rect width="70.8624" height="28.4544" fill="white" transform="translate(271.41 41.04)"/>
</clipPath>
<clipPath id="clip11_848_1139">
<rect width="147.744" height="78.7968" fill="white" transform="translate(198.359 151.301)"/>
</clipPath>
</defs>
</svg>
