<?xml version="1.0" standalone="no"?>
<!DOCTYPE svg PUBLIC "-//W3C//DTD SVG 20010904//EN"
 "http://www.w3.org/TR/2001/REC-SVG-20010904/DTD/svg10.dtd">
<svg version="1.0" xmlns="http://www.w3.org/2000/svg"
 width="1200.000000pt" height="1200.000000pt" viewBox="0 0 1200.000000 1200.000000"
 preserveAspectRatio="xMidYMid meet">

<g transform="translate(0.000000,1200.000000) scale(0.100000,-0.100000)"
fill="#000000" stroke="none">
<path d="M8070 2480 l0 -2481 1028 3 1027 3 59 23 c169 64 295 207 326 371 6
35 10 668 10 1842 l0 1789 -875 0 -875 0 0 45 0 45 -50 0 -50 0 0 70 0 70 -50
0 -50 0 0 60 0 60 -40 0 -40 0 0 60 0 60 -35 0 -35 0 0 55 c0 48 -2 55 -20 55
-18 0 -20 7 -20 60 0 47 -3 60 -15 60 -12 0 -15 13 -15 55 l0 55 -50 0 -50 0
0 60 0 60 -90 0 -90 0 0 -2480z"/>
</g>
</svg>
