<?xml version="1.0" standalone="no"?>
<!DOCTYPE svg PUBLIC "-//W3C//DTD SVG 20010904//EN"
 "http://www.w3.org/TR/2001/REC-SVG-20010904/DTD/svg10.dtd">
<svg version="1.0" xmlns="http://www.w3.org/2000/svg"
 width="2560.000000pt" height="1266.000000pt" viewBox="0 0 2560.000000 1266.000000"
 preserveAspectRatio="xMidYMid meet">

<g transform="translate(0.000000,1266.000000) scale(0.100000,-0.100000)"
fill="#000000" stroke="none">
<path d="M0 5250 l0 -5250 6468 0 6467 0 5250 5250 5250 5250 -11718 0 -11717
0 0 -5250z m3845 5040 c858 -55 1704 -267 2383 -597 97 -47 132 -69 128 -79
-9 -23 -878 -1487 -891 -1502 -10 -11 -29 -5 -103 32 -206 104 -543 236 -748
295 -240 69 -456 107 -819 146 -469 49 -757 22 -1000 -94 -141 -67 -226 -144
-283 -253 -23 -45 -27 -66 -27 -133 0 -113 37 -190 143 -295 193 -193 530
-356 1217 -590 568 -193 826 -291 1090 -413 833 -383 1310 -885 1463 -1539
l18 -78 671 1793 c370 985 786 2097 925 2469 l253 678 1103 -3 1104 -2 249
-680 c1131 -3078 1914 -5205 1925 -5230 12 -26 13 405 10 2943 l-3 2973 1546
-4 c1609 -4 1598 -4 1981 -47 846 -95 1498 -358 1910 -770 389 -389 591 -897
641 -1610 54 -780 -136 -1458 -549 -1950 -391 -467 -1008 -783 -1762 -904
-338 -54 -539 -66 -1142 -66 l-478 0 0 -1125 0 -1125 -1915 0 -1914 0 -21 68
c-11 37 -74 248 -139 470 -65 222 -121 405 -124 408 -3 3 -70 -13 -148 -35
-178 -50 -345 -84 -559 -113 -146 -20 -208 -23 -535 -23 -237 0 -410 5 -480
13 -280 32 -511 71 -750 127 -82 19 -154 35 -160 35 -6 0 -98 -214 -205 -475
l-195 -474 -1073 -1 c-1018 0 -1073 1 -1068 18 6 20 106 470 106 477 0 3 -28
-19 -63 -48 -281 -239 -751 -454 -1272 -582 -360 -89 -688 -133 -1060 -142
-807 -19 -1591 123 -2270 412 -201 85 -565 272 -604 310 -11 11 49 133 374
762 213 411 391 752 396 757 4 5 61 -22 126 -59 459 -264 846 -411 1253 -477
129 -20 177 -23 440 -22 162 0 354 6 425 13 410 38 677 175 790 404 99 201 71
364 -89 522 -185 184 -485 320 -1180 536 -690 215 -1118 395 -1521 640 -284
172 -533 409 -708 674 -203 308 -317 717 -319 1140 -1 120 4 180 26 300 51
287 112 487 216 703 131 272 305 490 553 693 518 425 1233 680 2052 732 123 8
515 6 660 -3z"/>
<path d="M14800 7480 l0 -1013 383 6 c407 6 516 16 694 61 320 81 542 245 665
491 146 291 141 747 -9 1005 -46 78 -166 202 -248 255 -122 80 -282 136 -495
176 -103 19 -162 22 -552 26 l-438 5 0 -1012z"/>
<path d="M9321 7638 c-10 -35 -186 -600 -391 -1257 -204 -656 -368 -1197 -363
-1202 10 -10 165 -53 265 -73 308 -63 655 -67 983 -11 166 28 360 77 359 91 0
5 -176 573 -390 1261 l-389 1253 -27 0 c-25 0 -29 -6 -47 -62z"/>
</g>
</svg>
